<?xml version="1.0" standalone="no"?>
<!DOCTYPE svg PUBLIC "-//W3C//DTD SVG 20010904//EN"
 "http://www.w3.org/TR/2001/REC-SVG-20010904/DTD/svg10.dtd">
<svg version="1.0" xmlns="http://www.w3.org/2000/svg"
 width="225.000000pt" height="225.000000pt" viewBox="0 0 225.000000 225.000000"
 preserveAspectRatio="xMidYMid meet">

<g transform="translate(0.000000,225.000000) scale(0.100000,-0.100000)"
fill="#000000" stroke="none">
<path d="M655 2240 c3 -5 44 -10 90 -10 46 0 87 5 90 10 4 6 -28 10 -90 10
-62 0 -94 -4 -90 -10z"/>
<path d="M916 2243 c-4 -4 -15 -8 -24 -8 -9 0 -17 -7 -17 -15 0 -8 9 -15 20
-15 11 0 20 5 20 10 0 6 4 16 8 23 9 13 5 16 -7 5z"/>
<path d="M933 2211 c-47 -43 -54 -61 -22 -61 14 0 19 5 17 19 -2 11 10 33 26
50 41 42 30 38 -21 -8z"/>
<path d="M1090 2248 c0 -2 135 -140 300 -308 l300 -305 -57 -3 -57 -3 -100
100 -101 101 -163 0 c-182 0 -186 2 -124 63 40 39 72 47 92 22 30 -36 88 -6
76 39 -9 35 -43 40 -72 11 -24 -24 -84 -31 -84 -10 0 5 -5 4 -12 -3 -12 -12
-98 -17 -98 -6 0 3 12 21 27 41 24 31 30 34 62 29 79 -14 86 -13 86 14 0 21
-4 25 -25 23 -86 -8 -105 -16 -148 -64 -33 -37 -51 -49 -73 -49 -37 0 -36 6 4
50 l32 35 -35 -30 c-19 -16 -45 -36 -57 -42 -25 -14 -83 -18 -83 -5 0 14 135
142 150 142 7 0 24 -9 36 -21 l23 -21 50 47 c28 26 51 52 51 57 0 5 -14 -8
-32 -27 -26 -31 -33 -34 -40 -21 -10 17 -58 22 -58 6 0 -5 -15 -10 -33 -10
-29 0 -43 -11 -106 -80 l-72 -80 -65 57 c-78 69 -85 101 -32 145 43 35 32 44
-15 13 -30 -21 -48 -25 -110 -25 -53 0 -78 -4 -87 -14 -6 -8 -17 -13 -25 -10
-7 3 -20 -5 -29 -18 -9 -13 -19 -22 -21 -20 -15 7 -25 0 -25 -19 0 -11 8 -23
18 -26 9 -3 27 -18 40 -34 l24 -29 -76 0 c-44 0 -76 4 -76 10 0 16 -40 11 -47
-6 -9 -25 14 -41 37 -26 11 7 53 12 96 12 l76 0 46 -51 c26 -29 49 -56 50 -60
8 -20 -34 -7 -62 18 -23 21 -25 22 -9 4 l22 -25 -107 -108 -106 -108 -133 0
c-82 0 -133 -4 -133 -10 0 -6 52 -10 137 -10 l137 0 38 37 38 37 53 -52 c47
-47 49 -52 28 -52 -13 0 -30 8 -37 18 -12 16 -14 16 -31 0 -16 -17 -16 -19 0
-35 13 -13 19 -14 29 -5 15 15 54 16 63 2 4 -6 11 -7 17 -4 5 4 -18 34 -53 70
l-63 64 29 30 c16 16 32 30 37 30 4 0 8 -26 8 -57 0 -51 4 -61 32 -90 l32 -33
-37 -38 c-33 -32 -40 -35 -57 -24 -29 18 -50 15 -50 -8 0 -26 25 -36 48 -19 9
7 -39 -44 -108 -114 l-125 -127 -82 0 c-49 0 -83 -4 -83 -10 0 -6 36 -10 88
-10 l87 0 135 135 c129 129 136 135 175 135 32 0 47 -6 68 -28 l27 -28 -54
-53 c-38 -37 -59 -52 -71 -47 -17 6 -55 -9 -67 -28 -13 -20 -8 -53 10 -69 43
-39 110 -4 99 51 -5 26 6 40 126 160 126 125 134 132 172 132 l40 0 -55 -49
c-46 -41 -55 -53 -52 -78 2 -22 -4 -33 -27 -51 -38 -28 -42 -73 -9 -96 30 -21
54 -20 78 4 27 27 25 56 -5 84 -40 37 -33 66 34 129 l60 57 127 0 128 0 -54
-55 c-29 -30 -63 -55 -74 -57 -28 -4 -29 -43 -1 -43 12 0 21 8 23 20 2 11 29
46 60 78 54 54 59 57 106 57 l50 0 -49 -52 -50 -53 55 53 c54 51 57 52 114 52
50 0 62 -4 83 -26 18 -20 31 -25 51 -21 24 5 51 -19 255 -219 l227 -224 79 0
78 0 63 65 c34 36 65 63 68 60 3 -3 -27 -39 -68 -80 l-74 -75 -141 0 -141 0
-49 50 c-27 28 -52 50 -56 50 -4 0 16 -22 44 -50 l52 -50 -45 0 c-35 0 -50 6
-75 29 -29 29 -33 30 -152 33 -66 2 -117 0 -111 -3 5 -3 -37 -56 -94 -117 -90
-97 -107 -112 -135 -112 -17 0 -35 5 -38 10 -5 8 -11 7 -21 -1 -11 -9 -12 -15
-3 -25 9 -11 15 -11 25 -3 7 6 22 9 33 7 17 -2 -3 -28 -106 -136 -70 -74 -137
-138 -150 -143 -16 -6 -23 -15 -21 -27 5 -24 32 -21 36 4 2 11 21 38 42 59
l40 39 0 -79 0 -80 -96 -96 c-62 -62 -94 -101 -89 -109 5 -8 45 25 121 101
l114 114 0 70 0 70 203 203 202 202 86 0 c79 0 87 -2 109 -25 l24 -26 213 3
c144 2 209 0 200 -7 -8 -5 -37 -38 -65 -72 l-52 -62 0 -258 0 -258 -78 -78
c-52 -52 -83 -76 -94 -72 -17 7 -43 -19 -33 -35 11 -18 45 -11 54 13 5 12 43
56 85 97 42 41 76 82 76 92 0 11 8 18 20 18 14 0 20 -7 20 -24 0 -17 -5 -23
-17 -22 -12 0 -19 -7 -21 -21 -3 -18 2 -23 17 -23 19 0 21 -6 21 -62 l0 -63
-87 -90 -88 -90 93 90 c74 72 92 95 93 120 l1 30 10 -32 c6 -17 29 -49 52 -70
l41 -38 -39 42 c-51 55 -40 67 13 16 l41 -38 -54 -57 -54 -58 35 0 c25 0 45 9
70 31 19 17 41 28 49 25 7 -3 16 -1 19 4 4 6 15 10 26 10 14 0 19 7 19 30 0
30 0 30 -57 30 -43 0 -62 5 -79 21 l-21 20 28 29 c16 16 29 36 29 44 0 12 11
16 50 16 28 0 50 5 50 10 0 6 -24 10 -53 10 -41 0 -55 4 -65 20 -7 11 -23 20
-37 20 l-25 0 0 198 c0 145 3 202 13 211 10 11 10 13 0 7 -9 -5 -13 3 -15 26
-1 29 -2 28 -8 -12 l-7 -45 -1 60 -2 59 62 66 63 65 -68 -66 -68 -65 0 -260
c1 -152 -3 -265 -9 -274 -6 -10 -10 83 -9 274 0 158 3 285 6 282 4 -4 35 21
69 55 53 52 65 60 78 50 8 -7 27 -11 43 -9 26 3 28 6 31 54 3 46 1 52 -19 57
-28 8 -49 -4 -88 -48 -24 -28 -33 -33 -37 -21 -4 9 6 30 22 50 25 30 35 35 77
35 26 1 47 6 47 11 0 6 -21 10 -47 10 l-47 0 47 48 c38 38 47 54 47 82 0 24
-3 31 -9 21 -5 -8 -16 -11 -30 -6 -17 5 -21 14 -21 47 0 23 6 49 14 57 21 23
25 106 6 106 -8 0 -16 -8 -18 -17 -2 -10 1 -18 7 -18 14 0 14 -57 0 -65 -5 -4
-20 1 -32 12 -22 18 -22 18 -4 -3 11 -14 17 -38 17 -72 l0 -52 -57 0 c-58 0
-58 0 -110 -59 -29 -33 -53 -64 -53 -70 0 -21 -37 -11 -65 19 -27 29 -28 30
-11 49 14 15 26 19 47 14 57 -11 94 62 51 100 -41 37 -92 7 -92 -54 0 -24 -6
-38 -21 -48 -20 -12 -26 -9 -73 38 l-51 51 48 48 c29 30 47 57 47 72 0 13 7
31 16 41 19 21 11 39 -16 39 -24 0 -36 -18 -21 -33 25 -25 12 -72 -34 -117
-38 -37 -46 -41 -60 -30 -14 12 -14 15 2 34 17 20 17 20 -1 4 -18 -16 -24 -12
-137 95 -114 107 -119 113 -113 145 12 65 -67 101 -102 47 l-16 -25 -419 0
c-290 0 -420 -3 -425 -11 -4 -7 -19 2 -40 22 -29 28 -34 39 -34 81 0 27 4 56
9 66 5 9 12 25 15 35 11 36 38 32 76 -13 22 -26 42 -41 51 -37 11 4 10 6 -2 6
-9 1 -29 17 -43 36 -25 33 -26 35 -7 35 11 0 30 -12 42 -27 l22 -28 -7 28 -6
27 177 0 177 0 -30 -31 c-16 -17 -40 -35 -53 -40 -22 -9 -23 -11 -9 -26 18
-17 42 -9 34 12 -2 7 12 29 33 49 l37 36 203 0 204 0 103 -100 104 -100 73 0
73 0 49 -50 49 -50 216 0 216 0 2 27 c2 25 1 25 -17 9 -16 -15 -43 -17 -213
-16 l-195 2 -89 91 -89 92 95 -90 95 -90 -89 92 c-50 51 -92 90 -95 87 -7 -6
-311 298 -311 311 0 5 64 -53 142 -130 l143 -140 -130 132 c-71 73 -126 136
-122 140 4 4 117 -102 250 -235 l242 -242 171 0 170 0 22 30 c12 16 22 33 22
37 0 4 -65 7 -145 5 -183 -4 -195 -22 -14 -22 116 0 130 -2 119 -15 -10 -12
-43 -15 -174 -15 l-161 0 -223 223 c-122 122 -222 226 -222 231 0 4 7 5 15 2
10 -3 33 10 61 36 l45 42 155 -155 c152 -151 155 -155 152 -194 -1 -22 -7 -45
-12 -51 -12 -13 -44 -7 -68 13 -9 8 -18 10 -22 5 -9 -15 22 -35 55 -36 42 -1
63 26 62 77 l-1 42 8 -35 c7 -35 7 -35 9 -5 1 26 -20 51 -161 192 l-163 163
23 22 22 23 153 -150 152 -150 -147 150 c-82 83 -148 153 -148 157 0 4 16 19
35 34 l36 27 29 -28 c36 -34 37 -43 8 -47 -15 -2 -24 -11 -26 -26 -3 -20 0
-23 20 -20 15 2 24 11 26 26 2 12 7 22 11 22 17 0 115 -112 116 -133 0 -16 7
-23 26 -25 16 -2 49 -26 84 -63 l59 -59 106 2 105 2 -110 6 -110 6 110 4 c101
4 104 4 35 7 -73 4 -76 5 -117 46 -39 37 -49 40 -44 14 1 -5 -4 -5 -11 -1 -7
4 -2 -4 11 -19 13 -15 31 -24 42 -22 10 2 21 1 23 -3 12 -19 -55 -7 -74 13
l-21 23 37 52 37 51 42 -41 c40 -40 44 -41 96 -37 l54 3 -55 2 c-48 2 -59 6
-91 38 l-38 37 27 33 27 34 65 -63 65 -62 -62 65 -62 65 35 38 36 39 26 -24
27 -23 -24 27 c-20 23 -22 30 -11 43 11 14 9 15 -17 13 -17 -1 -29 -7 -27 -13
3 -6 -11 -26 -30 -44 -29 -28 -38 -32 -50 -22 -10 8 -13 23 -9 47 7 40 -13 47
-42 14 -21 -23 -14 -50 13 -50 10 0 26 -8 35 -18 16 -17 15 -20 -12 -46 -16
-16 -34 -25 -40 -22 -7 4 -9 1 -5 -8 3 -9 -11 -33 -36 -60 l-42 -46 -21 26
c-17 22 -18 27 -5 40 13 13 15 13 15 0 0 -8 -5 -12 -11 -9 -6 4 -2 -3 8 -15
21 -24 32 -29 20 -10 -5 7 -3 8 6 3 9 -6 11 -4 5 5 -6 9 -4 11 6 5 8 -5 3 4
-10 18 l-24 27 23 25 c13 14 30 23 38 20 7 -3 10 0 7 6 -4 5 -1 18 6 27 7 9
-8 -3 -34 -28 l-47 -44 -67 66 -67 67 20 23 19 23 -22 -19 c-20 -17 -25 -17
-40 -4 -19 15 -50 18 -70 5 -8 -5 -13 -4 -13 2 0 21 -27 10 -60 -24 l-34 -35
-23 22 c-13 12 -23 27 -23 35 0 7 -6 13 -12 13 -9 0 -13 -18 -11 -61 1 -57 -1
-64 -34 -100 -20 -22 -39 -38 -44 -37 -4 2 -35 29 -68 61 -63 60 -73 87 -46
117 13 14 12 16 -5 16 -17 0 -20 -7 -20 -47 0 -43 4 -50 55 -98 30 -29 55 -54
55 -57 0 -18 -35 6 -90 61 -57 57 -64 69 -62 99 2 19 -1 37 -7 41 -7 4 -11 -6
-11 -26 l0 -33 -33 32 c-54 53 -65 36 -12 -18 70 -71 46 -75 -28 -4 -60 57
-59 56 8 -14 38 -39 65 -72 59 -72 -6 0 -41 32 -78 70 -56 58 -87 82 -86 68z
m689 -23 c6 -6 4 -17 -5 -29 -14 -19 -14 -19 -39 4 -13 12 -22 26 -20 30 6 10
53 6 64 -5z m-190 -62 c-19 -22 -29 -15 -29 19 0 30 0 31 20 13 15 -14 17 -21
9 -32z m481 37 c0 -5 -4 -10 -10 -10 -5 0 -10 5 -10 10 0 6 5 10 10 10 6 0 10
-4 10 -10z m-152 -137 c-17 -21 -26 -16 -89 44 -56 54 -58 57 -42 75 16 18 19
17 80 -44 48 -47 60 -65 51 -75z m-559 -22 c-14 -4 -89 69 -89 88 0 9 21 -5
50 -34 28 -28 46 -51 39 -54z m371 89 c0 -5 -4 -10 -10 -10 -5 0 -10 5 -10 10
0 6 5 10 10 10 6 0 10 -4 10 -10z m-1152 -26 c15 -5 22 -14 22 -33 1 -19 18
-41 66 -83 73 -65 67 -64 287 -58 53 1 97 -1 97 -6 0 -5 -19 -28 -42 -51 l-42
-43 -183 0 c-132 0 -183 3 -183 12 0 6 -12 27 -27 47 -16 20 -29 39 -29 44 -1
4 -2 12 -3 18 0 6 -11 9 -23 7 -32 -4 -35 -36 -6 -47 38 -15 91 -81 65 -81
-19 0 -187 193 -187 215 0 9 5 13 10 10 15 -9 40 14 40 36 0 16 8 19 58 19 31
0 67 -3 80 -6z m422 -15 c0 -5 -7 -9 -15 -9 -15 0 -20 12 -9 23 8 8 24 -1 24
-14z m720 -134 c85 -85 153 -155 150 -155 -3 0 -75 70 -160 155 -85 85 -153
155 -150 155 3 0 75 -70 160 -155z m-1300 125 c0 -5 -4 -10 -10 -10 -5 0 -10
5 -10 10 0 6 5 10 10 10 6 0 10 -4 10 -10z m-50 -30 c0 -5 -4 -10 -10 -10 -5
0 -10 5 -10 10 0 6 5 10 10 10 6 0 10 -4 10 -10z m1595 -9 c3 -5 2 -12 -3 -15
-5 -3 -9 1 -9 9 0 17 3 19 12 6z m-815 -11 c0 -5 -7 -10 -15 -10 -8 0 -15 5
-15 10 0 6 7 10 15 10 8 0 15 -4 15 -10z m750 -10 c0 -5 -2 -10 -4 -10 -3 0
-8 5 -11 10 -3 6 -1 10 4 10 6 0 11 -4 11 -10z m149 -64 c17 -18 19 -24 7 -22
-19 3 -29 12 -32 31 -3 20 -1 19 25 -9z m-1789 6 c0 -13 -12 -22 -22 -16 -10
6 -1 24 13 24 5 0 9 -4 9 -8z m974 -10 c8 -13 -11 -35 -23 -28 -16 10 -14 36
3 36 8 0 17 -4 20 -8z m-704 -12 c0 -5 -4 -10 -10 -10 -5 0 -10 5 -10 10 0 6
5 10 10 10 6 0 10 -4 10 -10z m545 -50 c-21 -22 -45 -40 -52 -40 -7 0 -13 -4
-13 -10 0 -5 -8 -10 -17 -10 -12 0 -2 15 32 50 27 28 58 50 69 50 17 0 14 -6
-19 -40z m706 -187 c13 -16 12 -17 -3 -4 -17 13 -22 21 -14 21 2 0 10 -8 17
-17z m-341 -108 c15 -18 5 -35 -21 -35 -12 0 -19 7 -19 18 0 33 20 42 40 17z
m-1050 -25 c0 -5 -4 -10 -10 -10 -5 0 -10 5 -10 10 0 6 5 10 10 10 6 0 10 -4
10 -10z m280 -55 l-54 -55 -48 47 c-26 25 -45 50 -42 55 3 4 49 8 102 8 l96 0
-54 -55z m-155 3 c-1 -17 -9 -24 -31 -26 l-29 -4 24 26 c30 32 38 33 36 4z
m-134 -31 c-1 -12 -15 -9 -19 4 -3 6 1 10 8 8 6 -3 11 -8 11 -12z m1469 -37
c0 -5 -4 -10 -10 -10 -5 0 -10 5 -10 10 0 6 5 10 10 10 6 0 10 -4 10 -10z
m-850 -9 c0 -6 -4 -13 -10 -16 -5 -3 -10 1 -10 9 0 9 5 16 10 16 6 0 10 -4 10
-9z m-252 -99 c3 -16 -2 -22 -17 -22 -26 0 -36 17 -20 36 16 19 33 13 37 -14z
m-285 -66 c9 -22 -19 -42 -37 -26 -19 15 -10 40 14 40 10 0 20 -6 23 -14z
m1507 -36 c0 -22 -24 -32 -39 -17 -15 15 -14 34 2 40 20 7 37 -4 37 -23z m135
-90 c-52 -53 -64 -60 -98 -60 l-39 0 33 38 c18 20 42 40 53 43 12 3 20 13 20
22 -2 14 7 17 44 17 l46 0 -59 -60z m133 -162 c-3 -7 -13 -13 -23 -13 -10 0
-20 6 -22 13 -3 7 5 12 22 12 17 0 25 -5 23 -12z m-148 -18 c0 -5 -4 -10 -10
-10 -5 0 -10 5 -10 10 0 6 5 10 10 10 6 0 10 -4 10 -10z m70 7 c0 -1 -30 -32
-67 -67 l-67 -65 58 68 c49 56 76 79 76 64z m-125 -92 c-32 -36 -59 -65 -61
-65 -2 0 -4 9 -4 20 0 27 77 110 102 110 16 0 8 -13 -37 -65z m-25 -250 c0
-188 -1 -195 -20 -195 -18 0 -20 7 -20 82 0 63 4 86 18 102 16 20 16 20 0 7
-17 -13 -18 -8 -18 68 0 63 4 88 18 106 9 14 18 25 20 25 1 0 2 -88 2 -195z
m47 -222 c-1 -54 -3 -10 -3 97 0 107 2 151 3 98 2 -54 2 -142 0 -195z m-57 2
c0 -8 -4 -15 -10 -15 -5 0 -10 7 -10 15 0 8 5 15 10 15 6 0 10 -7 10 -15z m0
-95 c0 -5 -4 -10 -10 -10 -5 0 -10 5 -10 10 0 6 5 10 10 10 6 0 10 -4 10 -10z
m105 -70 c0 -16 -6 -26 -17 -28 -14 -3 -18 3 -18 28 0 25 4 31 18 28 11 -2 17
-12 17 -28z m-315 -70 c0 -5 -4 -10 -10 -10 -5 0 -10 5 -10 10 0 6 5 10 10 10
6 0 10 -4 10 -10z"/>
<path d="M1751 2214 c6 -7 16 -11 21 -8 11 7 3 17 -18 20 -12 2 -13 -1 -3 -12z"/>
<path d="M1797 2183 c-3 -5 20 -36 52 -67 32 -32 61 -54 64 -49 3 5 -20 36
-52 67 -32 32 -61 54 -64 49z m63 -58 c30 -30 52 -55 49 -55 -2 0 -29 25 -59
55 -30 30 -52 55 -49 55 2 0 29 -25 59 -55z"/>
<path d="M535 2070 c-16 -16 -37 -30 -48 -30 -13 0 -18 -6 -15 -22 4 -32 43
-32 43 -1 0 12 14 36 30 53 16 16 26 30 24 30 -3 0 -18 -13 -34 -30z m-30 -50
c3 -5 -1 -10 -9 -10 -9 0 -16 5 -16 10 0 6 4 10 9 10 6 0 13 -4 16 -10z"/>
<path d="M1467 2188 c31 -32 58 -58 59 -58 1 0 1 7 0 15 -3 22 -84 102 -102
102 -9 0 10 -25 43 -59z m53 -35 c0 -8 -9 0 -50 45 l-45 47 48 -45 c26 -24 47
-45 47 -47z"/>
<path d="M1905 2210 c21 -22 41 -40 44 -40 3 0 -13 18 -34 40 -21 22 -41 40
-44 40 -3 0 13 -18 34 -40z"/>
<path d="M1960 2166 c0 -2 8 -10 18 -17 15 -13 16 -12 3 4 -13 16 -21 21 -21
13z"/>
<path d="M194 2115 c-8 -19 3 -35 26 -35 22 0 33 23 17 39 -15 15 -37 14 -43
-4z m36 -16 c0 -5 -4 -9 -10 -9 -5 0 -10 7 -10 16 0 8 5 12 10 9 6 -3 10 -10
10 -16z"/>
<path d="M94 2096 c-8 -21 3 -36 27 -36 15 0 20 6 17 22 -4 27 -35 37 -44 14z
m33 -22 c-9 -9 -28 6 -21 18 4 6 10 6 17 -1 6 -6 8 -13 4 -17z"/>
<path d="M184 1895 c-8 -20 4 -35 26 -35 25 0 35 17 20 35 -16 19 -39 19 -46
0z m36 -16 c0 -5 -4 -9 -10 -9 -5 0 -10 7 -10 16 0 8 5 12 10 9 6 -3 10 -10
10 -16z"/>
<path d="M1622 1879 c2 -13 12 -26 23 -29 46 -12 65 -34 65 -74 0 -22 3 -36 7
-33 3 4 13 1 22 -6 14 -11 14 -10 2 6 -10 13 -12 36 -8 87 5 65 4 70 -14 70
-26 0 -37 -30 -16 -45 10 -7 17 -18 17 -25 0 -21 -44 14 -50 41 -4 15 -14 25
-29 27 -19 3 -22 0 -19 -19z m32 -10 c-3 -5 -10 -7 -15 -3 -5 3 -7 10 -3 15 3
5 10 7 15 3 5 -3 7 -10 3 -15z m70 0 c-3 -5 -10 -7 -15 -3 -5 3 -7 10 -3 15 3
5 10 7 15 3 5 -3 7 -10 3 -15z"/>
<path d="M251 1777 c-8 -10 -7 -19 3 -33 8 -10 18 -16 22 -11 4 4 19 -3 33
-15 22 -20 23 -20 8 -2 -9 11 -17 27 -17 35 0 15 -19 39 -31 39 -4 0 -12 -6
-18 -13z m29 -17 c0 -5 -4 -10 -10 -10 -5 0 -10 5 -10 10 0 6 5 10 10 10 6 0
10 -4 10 -10z"/>
<path d="M137 1754 c-4 -4 -7 -16 -7 -26 0 -13 7 -18 26 -18 21 0 25 4 22 22
-3 23 -27 35 -41 22z m33 -18 c0 -11 -19 -15 -25 -6 -3 5 1 10 9 10 9 0 16 -2
16 -4z"/>
<path d="M533 1654 c-7 -18 17 -38 31 -24 11 11 1 40 -14 40 -6 0 -13 -7 -17
-16z"/>
<path d="M1644 1535 c-4 -8 -1 -21 4 -28 6 -7 13 -42 15 -77 l3 -65 2 67 c1
37 7 70 12 73 6 3 10 15 10 26 0 23 -38 27 -46 4z m36 -3 c0 -13 -12 -22 -22
-16 -10 6 -1 24 13 24 5 0 9 -4 9 -8z"/>
<path d="M1722 1448 c4 -30 43 -33 43 -3 0 13 -8 21 -23 23 -20 3 -23 0 -20
-20z m28 2 c0 -5 -4 -10 -10 -10 -5 0 -10 5 -10 10 0 6 5 10 10 10 6 0 10 -4
10 -10z"/>
<path d="M843 1444 c-11 -28 13 -39 49 -21 20 10 26 17 16 17 -10 0 -18 5 -18
10 0 16 -40 11 -47 -6z m31 -15 c-3 -5 -10 -7 -15 -3 -5 3 -7 10 -3 15 3 5 10
7 15 3 5 -3 7 -10 3 -15z"/>
<path d="M2050 1376 c0 -21 20 -30 33 -17 6 6 20 11 32 12 17 1 16 2 -5 9 -40
13 -60 11 -60 -4z m30 -6 c0 -5 -2 -10 -4 -10 -3 0 -8 5 -11 10 -3 6 -1 10 4
10 6 0 11 -4 11 -10z"/>
<path d="M1164 1353 c15 -18 30 -23 71 -23 28 0 57 -6 63 -12 10 -10 17 -10
32 0 25 15 82 16 97 1 15 -15 33 -3 33 21 0 27 -18 35 -39 16 -22 -20 -68 -21
-87 -1 -15 14 -44 11 -44 -6 0 -17 -102 -10 -124 9 -21 17 -21 17 -2 -5z m166
-13 c0 -5 -7 -10 -16 -10 -8 0 -12 5 -9 10 3 6 10 10 16 10 5 0 9 -4 9 -10z
m120 0 c0 -5 -4 -10 -10 -10 -5 0 -10 5 -10 10 0 6 5 10 10 10 6 0 10 -4 10
-10z"/>
<path d="M1544 1346 c-8 -20 3 -36 24 -36 9 0 37 -19 62 -42 l45 -43 -42 45
c-22 25 -43 54 -45 65 -4 24 -36 32 -44 11z m30 -17 c-3 -5 -10 -7 -15 -3 -5
3 -7 10 -3 15 3 5 10 7 15 3 5 -3 7 -10 3 -15z"/>
<path d="M1467 1274 c-4 -4 -7 -16 -7 -26 0 -14 6 -19 23 -16 14 2 22 10 22
23 0 20 -25 32 -38 19z m28 -24 c-3 -5 -10 -10 -16 -10 -5 0 -9 5 -9 10 0 6 7
10 16 10 8 0 12 -4 9 -10z"/>
<path d="M1622 1215 c21 -22 39 -37 41 -34 2 2 -15 19 -37 38 l-41 35 37 -39z"/>
<path d="M540 1195 c-33 -34 -35 -35 -115 -35 -80 0 -82 -1 -115 -35 l-34 -35
-138 0 c-85 0 -138 -4 -138 -10 0 -6 53 -10 138 -10 l138 0 34 35 c34 35 35
35 119 35 83 0 86 1 121 34 l35 34 400 5 400 5 45 -42 44 -41 -39 47 -40 46
-411 1 -410 1 -34 -35z"/>
<path d="M1335 1171 c-4 -8 -130 -11 -384 -11 l-377 0 -39 -40 -39 -40 -81 0
c-77 0 -83 -1 -110 -30 l-29 -30 -138 0 c-85 0 -138 -4 -138 -10 0 -6 54 -10
143 -10 l143 0 34 35 c29 30 40 35 72 33 l37 -3 -26 -27 c-14 -15 -29 -25 -33
-23 -4 3 -15 -4 -25 -15 -10 -11 -14 -20 -10 -20 5 0 -9 -18 -30 -40 -21 -22
-45 -40 -53 -40 -7 0 -12 -8 -10 -17 5 -25 32 -23 36 2 5 25 161 185 182 185
8 0 -22 -37 -68 -83 -82 -82 -82 -83 -82 -135 0 -28 -4 -52 -10 -52 -5 0 -10
-9 -10 -21 0 -14 5 -19 17 -17 15 3 17 13 15 73 l-3 70 85 85 c47 46 86 80 86
75 0 -5 -35 -46 -77 -90 -43 -44 -21 -25 48 43 l126 123 397 -3 c391 -3 397
-3 394 17 -3 22 -32 32 -43 16z m35 -21 c0 -5 -4 -10 -9 -10 -6 0 -13 5 -16
10 -3 6 1 10 9 10 9 0 16 -4 16 -10z m-1000 -144 c0 -2 -8 -10 -17 -17 -16
-13 -17 -12 -4 4 13 16 21 21 21 13z m-50 -220 c0 -3 -4 -8 -10 -11 -5 -3 -10
-1 -10 4 0 6 5 11 10 11 6 0 10 -2 10 -4z"/>
<path d="M654 1121 c-11 -12 -2 -31 16 -31 11 0 20 5 20 10 0 6 79 11 213 12
116 1 187 3 157 5 -98 5 -402 8 -406 4z"/>
<path d="M1173 1113 c31 -2 83 -2 115 0 31 2 5 3 -58 3 -63 0 -89 -1 -57 -3z"/>
<path d="M1262 797 c-192 -192 -192 -192 -192 -237 -1 -35 -7 -53 -30 -80 -26
-30 -30 -42 -30 -95 l0 -60 -113 -113 c-143 -143 -151 -144 -250 -44 l-67 68
0 155 0 155 58 57 c55 54 60 57 87 47 63 -24 135 30 135 102 0 111 -165 138
-200 33 -6 -18 -8 -44 -5 -56 5 -20 -7 -36 -65 -94 l-70 -69 0 -135 c0 -133 0
-134 -20 -116 -19 17 -20 31 -20 251 0 193 3 234 14 241 8 5 19 19 24 33 21
58 -34 112 -91 91 -46 -18 -58 -91 -21 -122 11 -9 14 -52 14 -212 0 -199 0
-200 -20 -182 -18 16 -20 31 -20 125 l0 108 -75 67 c-66 59 -75 71 -75 101 0
24 -8 43 -25 59 -30 30 -54 31 -89 4 -50 -39 -26 -116 39 -123 17 -2 50 -27
96 -72 l69 -68 0 -61 0 -60 -120 120 c-104 103 -120 124 -120 152 0 34 -29 63
-62 63 -25 0 -23 -36 2 -43 12 -3 20 -14 20 -27 0 -13 -8 -24 -20 -27 -25 -7
-27 -43 -2 -43 9 0 98 -81 197 -180 l180 -180 -40 0 c-37 0 -47 7 -120 80
l-80 80 -64 0 c-49 0 -67 4 -77 18 -12 15 -13 9 -14 -42 0 -47 3 -57 12 -48 7
7 35 12 63 12 50 0 51 -1 130 -80 l80 -80 85 0 85 0 115 -115 115 -115 65 0
65 0 139 139 c144 145 160 173 103 179 -25 3 -27 7 -27 46 0 34 6 48 30 71 25
24 30 37 30 75 0 45 1 46 130 175 122 122 130 128 130 100 0 -25 -18 -48 -100
-130 l-100 -100 0 -71 c0 -58 -4 -74 -20 -89 -16 -14 -20 -31 -20 -79 l0 -61
-147 -147 c-81 -82 -141 -148 -133 -148 8 0 63 48 122 107 l108 108 0 -40 c0
-35 -7 -47 -67 -110 l-68 -70 73 70 c54 52 72 65 72 50 0 -11 -21 -42 -47 -70
l-48 -50 53 50 52 49 0 72 c0 58 4 74 20 89 16 15 20 31 20 85 0 58 3 70 25
90 22 20 25 32 25 89 l0 66 100 100 c99 98 101 101 98 143 -1 29 3 48 15 59
16 16 17 12 17 -72 l0 -90 70 -70 70 -70 0 -293 c1 -177 5 -292 11 -292 5 0 9
95 9 240 0 132 4 240 8 240 4 0 34 -26 65 -58 l58 -58 -3 -182 c-2 -141 0
-182 10 -182 9 0 12 44 12 188 l0 189 -75 67 c-68 61 -75 71 -75 104 0 33 -9
46 -75 112 l-75 74 0 91 c0 87 1 93 28 118 37 35 64 34 96 -4 32 -38 32 -43 1
-63 -17 -11 -25 -26 -25 -46 0 -50 44 -75 91 -50 27 15 26 75 -1 92 -11 7 -20
20 -20 28 0 8 -16 32 -35 53 -60 65 -65 63 -283 -156z m-782 68 c0 -29 -25
-39 -45 -19 -8 9 -15 17 -15 19 0 2 7 10 15 19 20 20 45 10 45 -19z m-296 -27
c15 -24 -10 -51 -35 -37 -22 11 -24 30 -7 47 15 15 28 11 42 -10z m1404 -11
c4 -20 -25 -34 -40 -19 -15 15 -1 44 19 40 10 -2 19 -11 21 -21z m-798 -52
c16 -19 5 -61 -17 -67 -25 -7 -42 1 -53 23 -23 43 39 82 70 44z m280 -445 c0
-5 -4 -10 -9 -10 -6 0 -13 5 -16 10 -3 6 1 10 9 10 9 0 16 -4 16 -10z"/>
<path d="M1665 980 c-8 -13 3 -30 20 -30 14 0 27 24 18 34 -10 9 -31 7 -38 -4z
m25 -10 c0 -5 -2 -10 -4 -10 -3 0 -8 5 -11 10 -3 6 -1 10 4 10 6 0 11 -4 11
-10z"/>
<path d="M9 933 c-12 -16 -12 -17 2 -6 10 8 64 14 150 16 l134 3 -136 2 c-120
2 -138 0 -150 -15z"/>
<path d="M1761 907 c-9 -11 -8 -17 4 -27 19 -16 47 -5 43 17 -4 23 -31 28 -47
10z m33 -18 c-3 -5 -10 -7 -15 -3 -5 3 -7 10 -3 15 3 5 10 7 15 3 5 -3 7 -10
3 -15z"/>
<path d="M2226 901 c-15 -16 -21 -18 -37 -8 -17 10 -26 5 -71 -43 -29 -30 -37
-40 -17 -22 23 21 41 30 52 26 24 -9 22 -13 -20 -56 -20 -21 -34 -38 -31 -38
3 0 38 36 78 80 40 44 70 80 68 80 -3 0 -13 -9 -22 -19z m-42 -32 c-3 -5 -10
-7 -15 -3 -5 3 -7 10 -3 15 3 5 10 7 15 3 5 -3 7 -10 3 -15z"/>
<path d="M1665 850 c-21 -22 -35 -40 -30 -39 10 1 82 79 73 79 -2 0 -22 -18
-43 -40z"/>
<path d="M1764 826 c-8 -21 3 -36 27 -36 15 0 20 6 17 22 -4 27 -35 37 -44 14z
m33 -22 c-9 -9 -28 6 -21 18 4 6 10 6 17 -1 6 -6 8 -13 4 -17z"/>
<path d="M2220 810 c-24 -24 -26 -67 -4 -98 25 -36 31 -26 31 48 0 39 -2 70
-3 70 -2 0 -13 -9 -24 -20z"/>
<path d="M330 755 c-14 -16 -5 -35 16 -35 15 0 20 35 5 44 -5 3 -14 -1 -21 -9z
m20 -15 c0 -5 -4 -10 -10 -10 -5 0 -10 5 -10 10 0 6 5 10 10 10 6 0 10 -4 10
-10z"/>
<path d="M1302 608 c-16 -16 -15 -33 3 -48 13 -10 15 -57 17 -289 l3 -276 2
274 c3 218 6 277 18 294 25 36 -12 76 -43 45z m30 -23 c0 -5 -5 -11 -11 -13
-6 -2 -11 4 -11 13 0 9 5 15 11 13 6 -2 11 -8 11 -13z"/>
<path d="M1909 583 c-1 -5 0 -48 1 -96 1 -61 -2 -93 -12 -105 -12 -15 -11 -16
5 -3 14 11 17 29 17 92 0 46 4 79 10 79 6 0 10 9 10 20 0 18 -29 30 -31 13z
m21 -13 c0 -5 -4 -10 -10 -10 -5 0 -10 5 -10 10 0 6 5 10 10 10 6 0 10 -4 10
-10z"/>
<path d="M2166 508 c-9 -12 -16 -34 -16 -48 0 -34 41 -73 72 -68 21 3 23 8 26
71 l3 67 -35 0 c-25 0 -39 -6 -50 -22z m69 -28 c10 -16 -5 -50 -21 -50 -17 0
-28 24 -20 45 6 17 32 20 41 5z"/>
<path d="M1425 401 c-3 -6 -3 -11 1 -11 4 0 -3 -12 -17 -27 -16 -19 -17 -22
-4 -11 11 9 29 18 40 20 11 2 20 10 20 18 0 18 -30 26 -40 11z"/>
<path d="M1792 293 c2 -10 10 -18 18 -18 8 0 16 8 18 18 2 12 -3 17 -18 17
-15 0 -20 -5 -18 -17z m28 3 c0 -3 -4 -8 -10 -11 -5 -3 -10 -1 -10 4 0 6 5 11
10 11 6 0 10 -2 10 -4z"/>
<path d="M767 282 c-10 -11 -17 -36 -17 -60 0 -23 -5 -42 -11 -42 -6 0 -9 -8
-7 -17 2 -10 10 -18 18 -18 12 0 14 12 11 58 -2 45 1 63 15 78 9 10 15 19 12
19 -3 0 -12 -8 -21 -18z m-7 -122 c0 -5 -4 -10 -10 -10 -5 0 -10 5 -10 10 0 6
5 10 10 10 6 0 10 -4 10 -10z"/>
<path d="M0 270 c0 -6 44 -10 113 -10 101 0 116 -2 132 -20 15 -17 31 -20 100
-20 81 0 82 0 123 -38 23 -22 42 -42 42 -45 0 -4 -115 -7 -255 -7 l-255 0 0
-30 0 -30 297 -2 c226 -2 297 -6 301 -15 3 -10 -61 -13 -297 -13 -188 0 -301
-4 -301 -10 0 -6 120 -11 318 -12 174 -2 326 -7 337 -12 11 -5 -34 46 -100
113 l-120 121 -81 0 c-68 0 -84 3 -99 20 -16 18 -31 20 -137 20 -72 0 -118 -4
-118 -10z"/>
<path d="M1446 248 c-9 -17 -16 -36 -15 -42 0 -6 4 -1 9 12 6 12 18 22 30 22
13 0 20 7 20 20 0 31 -27 24 -44 -12z m34 12 c0 -5 -4 -10 -10 -10 -5 0 -10 5
-10 10 0 6 5 10 10 10 6 0 10 -4 10 -10z"/>
<path d="M1161 246 c-16 -19 -3 -46 23 -46 11 0 33 -12 49 -25 25 -22 27 -30
27 -100 0 -43 4 -75 10 -75 6 0 10 33 10 79 0 76 -1 80 -30 104 -16 14 -30 32
-30 39 0 33 -39 48 -59 24z m37 -17 c-2 -6 -8 -10 -13 -10 -5 0 -11 4 -13 10
-2 6 4 11 13 11 9 0 15 -5 13 -11z"/>
<path d="M804 186 c-9 -23 7 -38 26 -26 13 8 13 11 -2 26 -16 17 -18 17 -24 0z"/>
<path d="M1432 110 c-2 -24 -13 -46 -39 -75 l-38 -40 43 41 c38 35 43 45 39
75 l-4 34 -1 -35z"/>
<path d="M2176 41 c2 -2 -3 -13 -13 -23 -17 -19 -5 -26 15 -6 8 8 15 8 28 -3
12 -9 15 -10 10 -2 -5 9 0 13 13 13 37 0 22 18 -18 22 -22 2 -38 1 -35 -1z"/>
</g>
</svg>
