<?xml version="1.0" standalone="no"?>
<!DOCTYPE svg PUBLIC "-//W3C//DTD SVG 20010904//EN"
 "http://www.w3.org/TR/2001/REC-SVG-20010904/DTD/svg10.dtd">
<svg version="1.0" xmlns="http://www.w3.org/2000/svg"
 width="980.000000pt" height="980.000000pt" viewBox="0 0 980.000000 980.000000"
 preserveAspectRatio="xMidYMid meet">

<g transform="translate(0.000000,980.000000) scale(0.100000,-0.100000)"
fill="#000000" stroke="none">
<path d="M2272 7213 c-60 -29 -82 -111 -46 -172 35 -59 47 -61 428 -61 250 0
346 -3 346 -11 0 -11 -115 -513 -176 -769 -13 -58 -125 -538 -248 -1068 -122
-529 -225 -964 -228 -967 -2 -3 -39 -14 -82 -25 -255 -65 -461 -271 -527 -527
-27 -106 -27 -261 0 -364 120 -459 631 -687 1051 -468 138 72 271 213 333 355
87 199 79 437 -23 633 -89 172 -249 305 -433 362 -53 17 -67 25 -63 38 3 9
109 464 236 1011 127 547 255 1101 286 1230 30 129 72 309 92 400 l38 165 502
3 502 2 0 -1473 0 -1473 -67 -18 c-196 -52 -370 -195 -463 -381 -144 -289 -90
-615 140 -845 145 -146 310 -214 515 -214 209 0 369 68 524 221 l93 94 34 -38
c18 -21 33 -41 34 -45 1 -17 157 -130 223 -162 90 -43 170 -64 278 -72 221
-16 475 97 609 271 l42 54 38 -47 c156 -198 431 -310 669 -273 323 50 561 273
626 586 44 213 -16 444 -159 617 -89 108 -257 212 -382 238 l-54 11 0 1475 0
1474 511 0 c452 0 515 2 545 16 82 39 87 164 10 215 -18 12 -431 14 -2871 16
-2618 2 -2853 1 -2883 -14z m3216 -1704 l-3 -1471 -96 -32 c-52 -17 -121 -47
-153 -66 -69 -41 -172 -134 -207 -184 -13 -20 -27 -35 -30 -33 -3 1 -29 30
-57 64 -85 102 -243 199 -379 234 l-53 13 0 1473 0 1473 490 0 490 0 -2 -1471z
m1222 -3 l0 -1474 -52 -12 c-135 -32 -308 -141 -388 -245 -23 -30 -45 -55 -49
-55 -4 0 -14 13 -24 28 -25 44 -146 153 -212 192 -32 19 -102 49 -154 66 l-96
32 -3 1471 -2 1471 490 0 490 0 0 -1474z m-4169 -1596 c253 -47 435 -307 390
-558 -38 -214 -204 -375 -416 -405 -319 -46 -602 246 -546 563 49 270 305 450
572 400z m1940 -124 c183 -39 340 -189 379 -361 18 -80 14 -194 -10 -266 -118
-354 -566 -454 -818 -184 -93 99 -131 197 -132 336 0 97 27 187 81 268 52 78
107 125 194 167 106 51 197 63 306 40z m1208 4 c94 -16 177 -58 252 -128 205
-192 211 -501 14 -697 -98 -98 -210 -145 -345 -145 -244 0 -448 179 -483 424
-37 254 144 500 403 546 65 11 87 11 159 0z m1243 -4 c231 -49 389 -243 389
-476 0 -146 -48 -257 -155 -358 -188 -178 -478 -176 -667 5 -243 231 -181 635
120 788 57 28 152 53 211 54 19 0 65 -6 102 -13z"/>
</g>
</svg>
