<?xml version="1.0" standalone="no"?>
<!DOCTYPE svg PUBLIC "-//W3C//DTD SVG 20010904//EN"
 "http://www.w3.org/TR/2001/REC-SVG-20010904/DTD/svg10.dtd">
<svg version="1.0" xmlns="http://www.w3.org/2000/svg"
 width="1300.000000pt" height="1300.000000pt" viewBox="0 0 1300.000000 1300.000000"
 preserveAspectRatio="xMidYMid meet">

<g transform="translate(0.000000,1300.000000) scale(0.100000,-0.100000)"
fill="#000000" stroke="none">
<path d="M6783 10359 c-50 -10 -108 -25 -130 -31 l-38 -13 -3 -122 c-2 -117
10 -234 39 -365 21 -92 11 -100 -215 -178 -104 -36 -192 -72 -196 -80 -7 -13
50 -303 74 -378 13 -38 81 -29 261 34 88 31 179 59 201 61 41 5 42 4 57 -39
22 -59 62 -205 88 -313 11 -49 28 -98 36 -107 25 -28 74 -22 204 27 66 25 127
45 135 45 33 0 32 43 -1 165 -18 66 -41 168 -51 228 -16 94 -16 109 -4 121 8
8 83 42 165 75 152 62 195 91 195 133 0 28 -78 288 -91 304 -18 22 -73 17
-242 -21 -185 -41 -195 -42 -206 -12 -5 12 -24 117 -41 232 -18 116 -39 220
-46 233 -18 28 -62 28 -191 1z m131 -71 c20 -31 44 -162 61 -331 8 -76 19
-145 26 -153 19 -23 107 -17 261 17 77 17 151 28 163 25 29 -7 46 -35 73 -114
25 -71 28 -105 10 -120 -33 -27 -276 -125 -340 -137 -21 -4 -28 -11 -28 -29 0
-13 23 -119 51 -236 39 -160 49 -217 42 -233 -8 -16 -34 -30 -95 -49 -46 -16
-93 -28 -105 -28 -32 0 -51 30 -64 105 -18 105 -97 368 -114 381 -19 14 -54 4
-213 -61 -124 -51 -232 -76 -259 -59 -19 12 -74 206 -70 248 2 26 10 32 81 62
44 19 104 38 132 43 86 16 210 87 220 126 3 12 -2 39 -10 60 -42 100 -73 332
-57 430 6 37 10 41 56 57 28 9 76 17 107 18 49 0 60 -3 72 -22z"/>
<path d="M9459 10061 c-9 -6 -27 -37 -39 -68 -13 -32 -76 -168 -141 -303 -127
-264 -249 -551 -249 -587 0 -17 12 -29 50 -48 44 -22 50 -29 50 -56 0 -29 18
-52 74 -97 15 -12 12 -41 -8 -54 -11 -7 -132 34 -181 63 -56 33 -75 24 -113
-56 -19 -38 -73 -142 -122 -230 -165 -300 -193 -366 -191 -447 l1 -56 -58 -32
c-31 -18 -89 -62 -127 -99 -319 -301 -583 -536 -655 -584 -23 -15 -28 -15 -67
3 -24 10 -87 30 -140 43 -54 14 -179 46 -278 71 -99 25 -274 66 -390 91 -723
158 -985 218 -1095 251 -260 76 -681 172 -1180 269 -295 58 -450 93 -663 152
l-168 46 -27 -20 c-33 -24 -46 -72 -102 -378 -52 -279 -73 -376 -170 -770 -44
-176 -98 -403 -120 -505 -51 -232 -82 -353 -126 -503 -19 -65 -50 -189 -69
-276 -19 -87 -47 -200 -64 -252 -42 -134 -74 -251 -120 -434 -22 -88 -71 -261
-110 -385 -141 -454 -178 -603 -226 -915 -14 -93 -33 -210 -41 -260 -9 -49
-19 -135 -24 -190 -6 -74 -15 -114 -34 -155 -48 -103 -26 -241 52 -322 38 -41
77 -37 191 21 53 27 195 90 316 141 121 50 317 138 435 195 232 111 260 123
510 213 210 76 277 103 485 195 180 79 327 135 488 187 54 17 150 54 215 81
64 28 159 66 211 86 52 19 218 97 370 173 297 149 475 230 684 311 242 95 550
221 727 299 96 42 231 99 300 125 69 27 244 109 390 183 146 73 365 176 488
228 122 52 274 119 338 149 115 54 492 205 513 205 29 0 67 -124 131 -435 17
-82 60 -260 95 -395 36 -135 78 -312 95 -394 16 -82 52 -235 80 -340 60 -231
103 -432 125 -586 18 -125 25 -144 56 -160 16 -9 26 -8 45 4 37 25 40 60 11
119 -24 47 -28 75 -47 300 -21 263 -20 274 23 308 21 17 21 17 3 77 -28 93
-19 182 44 412 30 107 55 197 57 199 2 3 18 -10 36 -27 18 -18 36 -32 39 -32
3 0 23 17 45 38 22 20 52 45 66 55 35 23 34 45 -3 160 -19 55 -28 102 -25 117
3 16 -3 45 -15 74 -12 26 -25 84 -30 129 -10 101 -32 127 -110 127 -40 0 -52
4 -64 23 -19 30 -85 296 -93 373 -7 74 -5 76 127 124 47 17 112 48 145 69 100
63 143 86 317 164 230 105 265 123 284 152 15 23 14 28 -10 81 -14 31 -26 70
-26 86 0 44 -37 73 -129 102 -90 28 -122 31 -168 16 -24 -9 -45 -6 -109 14
-43 14 -110 32 -149 41 -38 9 -133 37 -210 62 -77 25 -183 56 -235 69 -59 14
-101 31 -110 42 -21 26 -220 835 -220 893 0 32 7 57 24 82 14 20 34 71 47 114
12 43 43 132 69 198 55 136 130 378 130 417 0 31 -33 75 -63 83 -12 4 -57 23
-100 43 -62 30 -77 41 -75 57 3 17 9 20 50 17 35 -3 58 2 88 19 37 21 44 22
76 10 33 -12 39 -11 63 7 14 10 32 37 40 58 21 60 202 510 280 698 39 93 71
183 71 199 0 68 -173 175 -358 222 -83 21 -183 28 -203 16z m170 -82 c95 -26
248 -99 280 -133 33 -35 31 -77 -7 -152 -16 -32 -57 -131 -90 -219 -33 -88
-94 -239 -135 -335 -83 -194 -89 -201 -166 -180 -47 12 -71 33 -71 61 0 22 28
90 103 254 27 61 69 161 93 223 24 63 68 157 99 209 37 63 53 99 46 106 -5 5
-16 7 -23 4 -19 -7 -129 -221 -174 -337 -20 -52 -64 -155 -98 -230 -35 -74
-69 -153 -77 -175 -11 -31 -21 -41 -41 -43 -14 -2 -32 4 -41 12 -13 14 -11 27
24 128 140 398 235 638 290 726 12 20 12 24 -1 32 -11 7 -21 3 -37 -18 -35
-41 -88 -149 -113 -227 -25 -77 -86 -244 -157 -430 -48 -127 -83 -175 -127
-175 -30 0 -86 45 -86 69 0 34 122 328 217 521 52 107 104 217 114 244 40 99
46 102 178 65z m-582 -1170 c26 -11 115 -43 198 -71 235 -79 275 -106 259
-176 -17 -75 -210 -611 -229 -637 -28 -37 -112 -85 -285 -160 -125 -54 -136
-57 -160 -44 -14 8 -31 26 -37 40 -24 50 -123 425 -123 467 0 61 29 136 103
265 35 62 86 155 112 207 71 143 76 146 162 109z m-5111 -603 c126 -32 254
-59 699 -152 543 -113 861 -189 1210 -290 66 -19 243 -60 393 -89 285 -57
1220 -281 1329 -319 35 -11 64 -24 65 -28 4 -10 -181 -170 -422 -364 -118 -96
-240 -195 -271 -221 -104 -88 -152 -123 -168 -123 -9 0 -42 18 -75 40 -32 22
-70 40 -84 40 -13 0 -55 -17 -93 -37 l-69 -37 -32 31 c-58 54 -92 67 -237 83
-51 6 -152 23 -225 39 -72 16 -180 37 -241 45 -60 9 -157 28 -215 42 -58 14
-175 40 -260 59 -85 19 -222 51 -304 71 -81 19 -178 39 -215 44 -36 5 -95 16
-129 24 -152 35 -230 -24 -253 -190 -7 -58 -21 -100 -49 -155 -44 -86 -72
-178 -95 -319 -9 -52 -40 -196 -70 -320 -103 -427 -143 -605 -160 -700 -8 -52
-47 -218 -86 -368 -63 -244 -69 -276 -58 -305 10 -27 9 -38 -5 -65 -9 -17 -16
-40 -16 -51 0 -39 35 -32 161 32 68 35 162 78 209 97 47 18 175 73 285 121
110 48 319 135 465 194 146 59 344 141 440 182 96 42 229 93 295 115 66 22
143 54 172 70 29 16 57 28 63 26 10 -3 -297 -262 -427 -361 -78 -59 -105 -107
-101 -180 3 -48 5 -52 35 -60 48 -14 79 -2 86 31 4 20 39 60 109 127 108 101
388 335 417 347 9 4 33 7 54 7 51 1 91 23 158 87 64 61 139 110 179 119 15 3
44 24 65 46 35 38 38 39 84 33 42 -5 56 -2 127 34 44 22 128 61 188 86 130 56
557 216 575 216 7 0 72 29 144 64 73 35 173 76 222 91 103 31 271 101 298 124
78 67 21 118 -163 146 -58 8 -184 28 -280 43 -215 35 -217 36 -105 132 42 35
188 177 324 316 137 138 256 254 266 257 9 4 61 -4 116 -18 55 -14 137 -32
182 -41 45 -8 150 -35 232 -59 83 -24 175 -51 206 -59 66 -18 55 1 133 -246
61 -195 106 -361 106 -394 0 -13 20 -84 45 -159 53 -161 55 -183 19 -199 -22
-11 -28 -10 -40 7 -8 10 -14 30 -14 44 0 32 -35 91 -53 91 -39 0 -47 -46 -18
-111 13 -28 17 -49 11 -59 -9 -17 -162 -80 -193 -80 -12 0 -25 16 -38 45 -15
35 -25 45 -43 45 -32 0 -38 -21 -15 -56 36 -55 28 -67 -76 -123 -53 -28 -106
-51 -119 -51 -23 0 -43 19 -89 85 -12 17 -26 25 -40 23 -32 -4 -33 -43 -3 -87
14 -20 26 -45 26 -54 0 -21 -152 -100 -183 -95 -15 2 -33 23 -57 68 -36 65
-59 82 -85 60 -23 -19 -18 -43 21 -100 19 -28 34 -59 32 -68 -3 -19 -215 -110
-259 -111 -33 -1 -43 11 -64 74 -24 71 -36 81 -66 56 l-24 -19 19 -49 c10 -26
19 -64 20 -83 1 -34 0 -35 -79 -68 -44 -18 -96 -34 -115 -35 -34 -2 -36 0 -68
66 -31 65 -42 74 -76 61 -22 -9 -20 -32 10 -92 14 -28 24 -59 22 -67 -4 -18
-300 -155 -335 -155 -18 0 -28 12 -48 55 -20 46 -28 55 -49 55 -37 0 -44 -38
-16 -89 13 -21 20 -46 17 -54 -8 -21 -225 -129 -251 -125 -20 3 -39 34 -74
115 -16 38 -36 47 -58 26 -20 -21 -12 -84 16 -123 34 -47 27 -57 -72 -105 -51
-25 -99 -52 -108 -60 -9 -8 -28 -15 -42 -15 -20 0 -25 4 -21 18 2 11 -7 32
-22 51 -15 17 -33 53 -39 79 -12 46 -13 47 -54 50 -79 6 -67 -42 34 -145 41
-42 58 -65 50 -71 -36 -27 -266 -105 -298 -100 -26 3 -38 27 -65 118 -18 61
-21 65 -49 65 -43 0 -43 -33 1 -122 20 -41 35 -82 33 -91 -4 -20 -130 -84
-271 -138 l-98 -37 -24 23 c-14 13 -34 48 -46 79 -28 76 -59 94 -80 47 -10
-21 -7 -33 20 -79 37 -65 38 -77 9 -105 -26 -24 -264 -132 -291 -132 -19 0
-67 93 -67 129 0 44 -72 56 -78 13 -2 -13 14 -56 34 -96 31 -59 36 -77 26 -88
-6 -8 -77 -46 -157 -83 -141 -66 -145 -68 -165 -50 -21 19 -60 113 -60 145 0
16 -7 20 -35 20 -28 0 -36 -4 -41 -24 -7 -28 47 -131 78 -147 17 -9 18 -13 7
-24 -18 -16 -311 -125 -338 -125 -24 0 -36 19 -45 74 -12 64 -37 106 -63 106
-31 0 -39 -23 -20 -63 8 -17 25 -61 37 -96 18 -54 19 -66 8 -78 -8 -7 -88 -42
-178 -77 -193 -75 -189 -76 -235 30 -16 38 -30 71 -31 72 -2 2 -12 1 -23 -3
-30 -9 -28 -70 4 -117 47 -69 33 -93 -85 -143 -47 -20 -101 -45 -121 -56 -70
-37 -95 -20 -141 95 -26 64 -50 88 -69 69 -18 -18 -2 -76 36 -134 19 -28 35
-55 35 -59 0 -11 -248 -130 -272 -130 -13 0 -35 26 -70 80 -51 79 -81 99 -94
65 -11 -28 6 -66 52 -115 52 -56 52 -57 -60 -89 -43 -13 -101 -31 -129 -41
-28 -10 -57 -16 -64 -13 -7 3 -27 33 -44 67 -37 73 -47 86 -66 86 -22 0 -27
-30 -10 -59 9 -15 23 -49 32 -76 16 -45 16 -49 -2 -65 -23 -21 -235 -110 -264
-110 -18 0 -21 4 -16 28 3 15 12 79 21 142 19 135 34 229 46 285 15 73 29 159
50 300 29 192 92 460 150 640 61 188 131 428 165 565 15 58 51 191 82 295 30
105 84 309 120 455 35 146 82 326 103 401 21 74 52 200 70 280 17 79 78 339
136 578 110 456 142 604 169 786 18 120 42 230 56 258 13 23 47 22 165 -7z
m4720 -224 c28 -93 36 -134 26 -147 -4 -6 -33 -29 -64 -53 -31 -23 -106 -88
-165 -144 -59 -55 -139 -126 -178 -157 -38 -30 -119 -98 -180 -151 -60 -53
-155 -132 -210 -175 -55 -43 -154 -131 -220 -195 -66 -64 -154 -143 -195 -175
-70 -55 -277 -241 -306 -275 -77 -90 -238 -246 -313 -302 -52 -39 -145 -120
-207 -179 -63 -60 -135 -119 -163 -134 -57 -28 -79 -58 -60 -81 6 -8 16 -14
22 -14 15 0 173 135 257 220 42 42 114 107 160 145 110 89 248 220 282 266 32
44 384 369 399 369 6 0 61 48 122 108 62 59 164 150 227 203 428 354 545 454
625 530 50 48 104 94 122 103 37 18 69 21 78 5 18 -28 -11 -60 -132 -151 -265
-198 -439 -357 -843 -772 -85 -87 -326 -314 -535 -504 -209 -190 -407 -371
-440 -401 -76 -70 -332 -274 -364 -291 -20 -10 -27 -9 -50 8 -14 10 -37 41
-51 68 -37 72 -34 146 12 249 20 44 44 107 53 140 9 33 26 77 37 99 28 55 109
139 198 204 41 31 145 112 230 182 85 70 227 183 315 252 88 70 210 168 271
220 61 51 205 172 320 268 267 223 403 343 585 517 154 146 260 226 293 221
15 -2 25 -21 42 -76z m581 -174 c6 -7 28 -89 51 -183 84 -352 184 -741 217
-843 19 -59 50 -165 69 -237 19 -71 57 -212 85 -312 27 -100 66 -257 86 -350
57 -268 113 -497 157 -648 40 -136 41 -142 30 -210 -14 -86 -86 -343 -101
-358 -22 -22 -40 18 -56 123 -45 304 -175 865 -320 1385 -64 227 -79 272 -208
610 -126 332 -203 582 -243 793 -5 27 -44 31 -44 5 0 -33 49 -236 81 -332 65
-203 174 -512 229 -651 31 -80 71 -192 88 -250 17 -58 46 -159 66 -225 19 -66
73 -275 120 -465 125 -507 171 -736 182 -910 7 -103 14 -125 51 -153 36 -29
30 -72 -14 -96 -60 -31 -111 10 -141 114 -41 142 -93 346 -147 585 -76 331
-123 516 -211 831 -40 147 -89 335 -109 419 -19 83 -55 211 -80 283 -25 73
-59 185 -76 250 -16 65 -54 194 -83 285 -29 92 -62 202 -72 245 -26 111 -26
111 186 217 96 48 180 88 186 89 6 0 16 -5 21 -11z m-463 -270 c9 -47 41 -164
71 -259 69 -218 70 -229 31 -229 -13 0 -97 18 -187 40 -90 21 -200 46 -244 55
-107 22 -178 43 -200 59 -17 12 -15 16 21 52 22 22 73 66 114 99 41 32 100 81
130 108 96 87 230 181 240 170 4 -5 15 -47 24 -95z m-4270 -557 c4 -5 2 -21
-4 -36 -5 -14 -35 -123 -65 -240 -30 -118 -93 -331 -139 -472 -47 -142 -94
-298 -105 -348 -11 -49 -39 -144 -61 -210 -34 -99 -40 -111 -35 -70 5 53 52
251 110 470 19 72 45 193 58 271 15 88 40 185 67 260 23 65 61 174 85 241 24
67 46 126 49 132 9 13 33 14 40 2z m331 -47 c72 -14 238 -52 370 -85 278 -70
287 -72 505 -104 390 -58 667 -116 683 -143 3 -4 -36 -41 -86 -82 -50 -41
-127 -109 -171 -152 l-80 -76 33 -89 c19 -48 38 -94 43 -100 16 -20 44 -15
108 17 33 17 62 30 64 30 8 0 -49 -153 -94 -250 -21 -47 -41 -95 -45 -107 -5
-19 -132 -130 -314 -275 -32 -25 -115 -64 -271 -126 -124 -50 -304 -124 -400
-165 -96 -40 -227 -93 -290 -117 -63 -23 -185 -75 -270 -115 -85 -41 -222 -97
-305 -125 -82 -28 -179 -67 -214 -85 l-64 -34 6 82 c19 263 160 845 342 1412
37 116 89 299 116 408 53 210 72 271 98 300 18 21 28 20 236 -19z m5047 -200
c125 -40 246 -77 270 -80 24 -4 65 -15 92 -26 38 -15 69 -18 146 -16 106 3
135 -7 114 -39 -23 -36 -281 -158 -313 -148 -9 3 -27 29 -41 57 -27 56 -53 69
-74 35 -9 -14 -5 -28 18 -71 35 -64 30 -74 -42 -106 -73 -33 -76 -31 -160 79
-13 17 -24 22 -39 17 -34 -11 -33 -30 4 -84 35 -50 36 -51 19 -77 -20 -30 -88
-64 -128 -65 -24 0 -28 6 -43 58 -10 31 -19 73 -22 92 -3 19 -13 60 -23 91
-29 90 -82 339 -76 354 8 21 39 14 298 -71z m-3224 -108 c15 -8 34 -26 42 -41
14 -26 13 -29 -18 -56 -41 -37 -59 -37 -80 1 -9 17 -24 29 -32 27 -15 -3 -17
-25 -5 -83 5 -23 3 -33 -9 -37 -15 -6 -56 27 -56 45 0 4 -9 8 -20 8 -25 0 -26
-29 -4 -71 19 -37 4 -62 -34 -57 -19 2 -28 14 -44 56 -32 85 -25 94 131 189
60 36 88 40 129 19z m3936 -142 c12 -32 -23 -53 -244 -148 -41 -18 -123 -62
-182 -99 -137 -85 -167 -100 -282 -141 -81 -30 -96 -33 -106 -20 -7 7 -10 21
-6 29 9 24 111 85 246 147 69 32 217 100 330 152 113 53 212 95 221 96 9 0 20
-7 23 -16z m-4249 -67 c29 -45 29 -81 0 -115 -47 -56 -94 -50 -121 14 -17 40
-10 59 37 98 38 32 64 33 84 3z m1386 -82 c123 -20 227 -39 231 -41 27 -17
-22 -47 -137 -83 -38 -13 -131 -51 -205 -86 -74 -35 -189 -84 -255 -108 -66
-25 -151 -59 -190 -75 -146 -64 -483 -188 -489 -181 -4 4 128 124 344 313 74
65 171 154 215 197 44 43 94 85 110 94 38 21 86 17 376 -30z m-1531 -100 c0
-8 -4 -15 -10 -15 -5 0 -10 7 -10 15 0 8 5 15 10 15 6 0 10 -7 10 -15z m2998
-391 c-8 -9 -51 -28 -94 -44 -91 -33 -479 -202 -570 -248 -33 -17 -98 -43
-143 -57 -45 -15 -187 -80 -314 -144 -352 -177 -898 -417 -1497 -657 -234 -94
-442 -187 -690 -308 -345 -169 -493 -234 -710 -311 -58 -21 -181 -69 -275
-107 -490 -199 -835 -335 -960 -378 -130 -45 -694 -291 -1094 -479 -96 -45
-184 -81 -195 -79 -11 2 -27 15 -36 30 -13 24 -13 29 0 42 21 21 427 188 594
245 78 27 179 67 226 90 47 22 129 57 183 77 54 19 170 69 257 109 88 41 219
95 292 121 73 26 201 76 283 111 593 256 967 418 1005 435 237 106 659 282
836 348 121 45 314 127 429 182 116 55 244 115 285 133 182 80 547 232 675
282 77 30 185 74 240 98 55 24 123 50 150 58 82 25 142 51 351 154 291 144
699 310 769 312 18 1 18 0 3 -15z m-2958 -179 c17 -30 35 -57 41 -60 22 -14 5
-47 -53 -99 -81 -72 -141 -105 -165 -90 -24 14 -83 102 -83 122 0 36 172 180
217 182 6 0 26 -25 43 -55z m3740 -252 c-1 -16 -7 -39 -14 -52 -13 -24 -14
-24 -25 -3 -14 27 -14 55 1 70 21 21 38 14 38 -15z m38 -169 c4 -27 -24 -39
-36 -16 -5 9 -7 23 -5 30 8 20 38 9 41 -14z m19 -102 c15 -10 33 -57 33 -88 0
-22 -4 -25 -27 -22 -25 3 -29 8 -35 52 -9 63 -1 77 29 58z m-6058 -212 c-12
-69 -26 -129 -30 -134 -4 -5 -14 -6 -22 -3 -13 5 -13 15 -1 79 13 68 47 194
61 228 17 39 13 -56 -8 -170z m5790 -504 c7 -8 16 -52 21 -98 9 -90 5 -100
-40 -96 -28 3 -51 41 -71 120 -12 42 -11 49 6 68 21 23 67 27 84 6z"/>
<path d="M8966 8455 c-90 -32 -186 -183 -169 -266 8 -41 86 -125 144 -155 109
-55 200 -20 259 100 30 61 32 69 25 135 -15 155 -125 234 -259 186z m131 -65
c18 -10 39 -33 48 -50 37 -72 27 -206 -20 -250 -33 -31 -111 -29 -180 5 -71
35 -90 66 -90 142 0 53 4 66 31 100 57 71 145 93 211 53z"/>
<path d="M2903 9334 c-351 -120 -616 -234 -630 -270 -3 -9 4 -37 16 -62 11
-26 30 -77 41 -114 42 -138 71 -143 257 -37 70 39 186 94 257 121 165 62 318
141 352 181 22 27 26 38 22 82 -5 65 -49 160 -76 167 -12 4 -112 -25 -239 -68z
m215 -59 c19 -41 14 -61 -21 -91 -36 -32 -80 -53 -297 -145 -80 -33 -172 -77
-205 -96 -76 -45 -127 -63 -155 -56 -25 7 -60 78 -60 123 0 53 99 103 405 203
313 102 315 103 333 62z"/>
<path d="M3048 8895 c-368 -126 -555 -205 -598 -250 -19 -21 -22 -32 -17 -72
13 -113 79 -223 133 -223 13 0 90 26 171 59 360 143 486 186 540 184 69 -2 77
10 63 109 -21 155 -52 241 -89 251 -12 3 -101 -22 -203 -58z m195 -105 c33
-102 47 -91 -258 -205 -148 -56 -292 -111 -319 -123 -91 -41 -122 -27 -149 65
-11 40 -12 56 -3 67 20 28 220 114 402 174 247 81 245 81 279 79 27 -2 32 -7
48 -57z"/>
<path d="M11113 8032 c-117 -42 -167 -98 -166 -187 1 -98 94 -221 197 -260 56
-21 60 -20 150 57 106 92 132 200 72 302 -51 87 -154 123 -253 88z m140 -74
c10 -5 27 -24 37 -41 56 -90 -12 -257 -103 -257 -39 0 -118 48 -150 91 -40 55
-31 149 18 189 41 34 148 44 198 18z"/>
<path d="M10521 7636 c-6 -7 -20 -37 -30 -67 -11 -30 -33 -84 -50 -121 -55
-119 -46 -132 114 -168 55 -12 145 -39 200 -60 212 -81 662 -222 754 -235 125
-19 131 -16 153 81 23 104 39 220 32 238 -7 19 -37 30 -184 66 -69 17 -201 55
-295 85 -205 65 -651 195 -669 195 -8 0 -19 -6 -25 -14z m273 -137 c105 -28
292 -83 416 -124 124 -40 260 -81 303 -90 98 -22 105 -32 82 -125 -9 -38 -25
-76 -36 -86 -17 -16 -24 -15 -116 6 -101 23 -668 207 -719 233 -16 8 -67 24
-114 36 -102 26 -126 44 -110 87 24 63 61 114 82 114 11 0 107 -23 212 -51z"/>
<path d="M10892 7059 c-71 -7 -124 -37 -176 -102 -28 -35 -31 -46 -31 -107 0
-60 4 -74 30 -111 17 -23 50 -53 75 -67 38 -20 54 -23 103 -18 105 10 181 55
218 128 31 60 35 118 11 170 -37 84 -112 119 -230 107z m103 -91 c45 -23 65
-51 65 -91 0 -81 -77 -147 -171 -147 -96 0 -164 72 -141 149 13 43 57 88 98
101 33 10 119 3 149 -12z"/>
<path d="M1434 5751 c-64 -8 -99 -31 -112 -73 -15 -49 -21 -286 -8 -297 24
-18 81 -20 184 -5 79 11 214 16 512 18 223 2 413 7 422 11 39 16 41 73 5 177
-9 26 -16 68 -15 93 4 84 30 80 -485 82 -249 0 -475 -2 -503 -6z m871 -91 c33
-17 53 -63 57 -133 l3 -42 -355 -6 c-195 -4 -408 -12 -473 -18 -91 -10 -122
-10 -133 0 -10 8 -14 35 -14 93 0 86 9 110 45 119 11 3 205 5 430 4 344 -2
415 -4 440 -17z"/>
<path d="M10810 4414 c-152 -19 -174 -28 -178 -72 -4 -44 10 -47 104 -23 210
53 444 49 586 -12 127 -54 220 -257 188 -410 -28 -134 -256 -399 -455 -528
-388 -253 -726 -400 -1254 -545 -501 -138 -1003 -163 -1395 -69 -203 48 -306
93 -365 160 -36 41 -95 155 -106 203 -14 64 37 212 112 325 54 81 100 119 333
275 187 126 312 194 426 235 76 27 94 24 94 -18 0 -12 7 -45 15 -73 12 -40 21
-53 40 -58 34 -9 58 2 78 35 22 37 184 152 243 171 51 17 74 41 74 77 0 19
-15 30 -94 68 -52 25 -98 45 -102 45 -4 0 -46 18 -94 40 -100 46 -178 56 -207
27 -15 -15 -16 -23 -4 -74 7 -32 15 -77 18 -99 7 -51 2 -55 -159 -123 -67 -29
-180 -90 -272 -147 -86 -55 -183 -115 -216 -133 -157 -90 -301 -278 -355 -466
-32 -109 -3 -225 85 -341 52 -70 114 -108 239 -148 226 -73 439 -105 756 -113
215 -5 224 -5 395 26 389 69 339 57 700 168 249 76 314 101 568 217 263 120
521 287 679 439 117 113 242 271 280 353 49 108 40 232 -27 365 -54 106 -131
176 -235 214 -70 25 -326 29 -495 9z"/>
<path d="M6071 3876 c-101 -57 -117 -77 -127 -150 -6 -44 -5 -46 41 -88 26
-24 68 -70 93 -103 25 -33 74 -90 110 -126 47 -49 62 -71 56 -82 -5 -8 -36
-37 -70 -65 -60 -50 -230 -227 -248 -259 -7 -13 -2 -22 19 -37 16 -12 59 -51
96 -88 37 -38 75 -68 86 -68 35 0 171 100 240 176 77 85 123 118 152 109 23
-7 120 -109 206 -218 74 -93 94 -106 130 -83 50 33 235 221 235 239 0 11 -15
31 -32 45 -78 65 -248 237 -248 252 0 10 61 66 138 129 75 61 150 122 165 136
l29 24 -29 52 c-17 32 -49 69 -83 96 -30 23 -73 68 -96 100 -22 32 -49 59 -60
61 -13 2 -72 -50 -194 -173 -96 -96 -180 -175 -186 -175 -22 0 -225 233 -255
292 -23 45 -34 58 -52 58 -12 0 -64 -25 -116 -54z m116 -83 c68 -92 195 -242
246 -290 64 -60 74 -60 116 1 45 64 289 306 309 306 10 0 51 -33 90 -74 66
-68 71 -76 61 -98 -11 -23 -174 -166 -226 -198 -15 -9 -47 -38 -71 -64 -48
-53 -47 -64 11 -99 36 -22 257 -233 257 -246 0 -12 -115 -119 -130 -121 -39
-5 -57 9 -167 136 -65 75 -125 146 -134 157 -28 35 -62 14 -202 -124 -73 -72
-149 -140 -171 -151 l-39 -20 -43 43 c-55 54 -57 81 -8 137 36 43 158 137 238
184 62 37 61 59 -5 123 -28 28 -110 115 -182 194 -105 115 -128 146 -120 159
15 24 103 82 124 82 10 0 30 -17 46 -37z"/>
</g>
</svg>
