<?xml version="1.0" standalone="no"?>
<!DOCTYPE svg PUBLIC "-//W3C//DTD SVG 20010904//EN"
 "http://www.w3.org/TR/2001/REC-SVG-20010904/DTD/svg10.dtd">
<svg version="1.0" xmlns="http://www.w3.org/2000/svg"
 width="400.000000pt" height="400.000000pt" viewBox="0 0 400.000000 400.000000"
 preserveAspectRatio="xMidYMid meet">

<g transform="translate(0.000000,400.000000) scale(0.100000,-0.100000)"
fill="#000000" stroke="none">
<path d="M2295 3615 c-5 -2 -31 -6 -57 -10 l-48 -6 -1 -52 c-1 -29 -4 -79 -8
-112 l-6 -60 -43 76 -42 77 -83 4 c-54 3 -87 0 -97 -7 -8 -7 -36 -23 -62 -35
-27 -13 -48 -24 -48 -25 0 -1 8 -17 17 -36 32 -64 72 -194 62 -204 -6 -6 -34
3 -75 25 -65 33 -66 33 -145 23 -87 -12 -98 -19 -141 -101 -20 -37 -21 -44 -8
-52 64 -37 185 -130 183 -141 -1 -8 -8 -36 -16 -64 -13 -48 -14 -50 -53 -52
-55 -4 -193 -23 -210 -30 -11 -4 -13 -16 -9 -52 10 -74 14 -81 43 -82 15 0 65
-10 111 -22 77 -20 85 -25 92 -50 7 -25 5 -28 -9 -21 -9 5 -55 10 -101 12
l-83 4 -58 -45 c-69 -54 -86 -48 -60 21 10 26 21 68 25 94 l7 47 -38 16 c-26
10 -74 16 -148 18 l-111 2 -33 -68 -34 -68 -27 78 -27 78 -114 0 c-162 -1
-154 5 -146 -115 l7 -100 -26 -12 c-22 -10 -29 -8 -53 10 -68 55 -73 57 -159
57 l-83 0 -44 -50 c-25 -27 -45 -55 -46 -61 0 -5 36 -50 80 -98 l79 -89 -16
-31 c-9 -17 -19 -47 -22 -66 -4 -21 -12 -35 -21 -35 -8 -1 -52 -4 -98 -9 l-82
-8 -1 -42 c-2 -42 -1 -92 0 -112 1 -6 36 -16 79 -23 44 -7 83 -16 89 -19 5 -4
24 -36 41 -72 l31 -65 -65 -62 c-35 -34 -64 -66 -64 -70 0 -4 20 -34 45 -66
l45 -57 78 -1 c97 -2 101 -1 134 23 25 17 29 18 34 3 4 -9 5 -75 2 -146 -3
-87 -1 -132 6 -137 6 -4 36 -16 66 -26 50 -16 63 -16 133 -4 l79 13 34 85 c18
47 33 91 34 98 0 25 20 11 41 -30 42 -82 92 -148 116 -155 69 -17 194 17 249
68 l21 20 -32 97 c-18 53 -30 100 -28 105 14 24 62 36 119 28 32 -4 97 -5 144
-2 78 6 86 8 97 31 32 69 31 72 -61 149 l-85 72 14 32 c11 26 22 34 62 44 28
7 49 8 51 3 2 -5 27 -26 55 -46 54 -39 65 -41 169 -28 44 5 50 10 110 85 39
50 67 78 76 74 7 -3 18 -5 23 -5 4 0 10 -57 11 -127 l3 -128 75 -15 c62 -13
83 -14 123 -4 l48 12 -7 -46 c-7 -45 -25 -71 -51 -72 -6 0 -38 22 -70 50 -33
29 -69 50 -83 51 -14 0 -55 2 -92 3 l-67 3 -50 -51 -50 -51 52 -62 c29 -35 69
-83 90 -107 l38 -44 -20 -41 c-12 -22 -21 -47 -21 -55 0 -25 -21 -31 -124 -36
l-100 -5 -13 -50 c-23 -90 -26 -86 125 -137 68 -23 68 -23 99 -87 l31 -65 -27
-40 c-14 -23 -47 -67 -73 -99 -27 -32 -48 -60 -48 -63 0 -7 62 -87 75 -96 6
-4 47 -8 93 -8 l83 0 58 55 c40 38 63 53 75 49 9 -3 16 -7 16 -8 0 0 -7 -37
-15 -81 -23 -131 -23 -131 38 -149 54 -15 171 -12 193 6 7 5 22 42 35 83 30
94 53 102 62 22 4 -29 14 -74 23 -101 l17 -48 71 6 c94 8 175 21 183 30 4 4 8
47 8 96 0 89 0 89 27 95 20 5 40 -2 80 -29 48 -33 59 -36 123 -36 l70 0 64 58
65 58 -77 81 c-42 44 -77 85 -77 90 0 5 9 18 20 28 10 9 27 38 36 62 l18 45
86 -6 c48 -4 116 -4 150 0 l63 7 -6 71 c-3 39 -8 79 -12 88 -9 24 -53 36 -156
44 l-89 7 -11 41 c-6 23 -17 48 -24 56 -11 13 -4 27 52 95 35 44 72 95 81 113
l16 33 -39 39 c-37 37 -45 40 -112 46 l-72 7 -75 -57 c-42 -31 -78 -56 -81
-56 -11 0 -3 27 40 141 25 65 45 127 45 138 0 15 -18 28 -66 52 -60 28 -73 31
-124 25 l-58 -7 -7 33 c-4 18 -16 55 -28 81 l-20 49 34 34 34 34 68 -35 67
-36 87 13 88 14 32 59 c18 33 33 65 33 70 0 14 -80 73 -161 118 l-67 37 27 65
26 65 95 1 c174 3 163 0 178 45 8 21 15 61 15 88 l2 49 -70 29 c-81 34 -110
44 -146 52 -22 5 -28 13 -36 56 -12 58 -22 47 107 112 41 21 81 38 88 38 18 0
19 50 1 106 -8 26 -16 33 -47 38 -67 11 -128 6 -191 -15 -35 -11 -67 -19 -72
-17 -5 2 16 34 46 72 111 139 114 157 37 198 -62 34 -218 46 -227 19 -3 -9
-25 -36 -49 -60 -38 -38 -43 -40 -40 -19 2 12 5 60 7 104 5 80 4 82 -21 93
-30 14 -177 33 -211 28 -20 -3 -30 -18 -57 -88 -18 -46 -36 -93 -39 -104 -4
-14 -14 12 -30 78 -13 54 -25 104 -28 111 -7 18 -122 41 -152 31z m47 -106
c15 -46 27 -97 28 -114 0 -16 4 -35 8 -41 9 -15 113 -37 122 -27 4 5 19 42 33
83 50 145 53 150 90 143 17 -3 43 -10 56 -15 25 -9 25 -12 8 -256 -2 -31 1
-35 38 -48 22 -7 40 -14 41 -14 1 0 17 24 36 53 20 28 57 74 82 100 l47 48 60
-22 c33 -12 62 -25 64 -29 7 -11 -74 -116 -129 -170 -25 -24 -46 -47 -46 -50
0 -4 14 -16 31 -29 l31 -23 81 21 c45 12 103 28 129 35 36 11 49 12 56 3 12
-15 35 -87 30 -92 -7 -8 -228 -105 -238 -105 -13 0 -12 -10 5 -40 8 -14 14
-41 15 -61 l0 -36 128 -43 c70 -23 128 -44 130 -45 1 -1 -3 -34 -10 -72 l-12
-71 -129 2 c-108 1 -130 -1 -134 -14 -3 -8 -18 -49 -34 -90 -22 -58 -26 -77
-16 -86 6 -6 54 -37 104 -68 51 -32 95 -62 99 -67 4 -7 -39 -89 -60 -116 0 -1
-59 27 -131 62 l-130 64 -19 -27 c-11 -15 -41 -48 -66 -74 l-47 -48 20 -32
c27 -45 53 -122 61 -185 l6 -51 -51 -17 c-28 -10 -54 -13 -59 -9 -13 14 -128
192 -132 205 -3 8 -26 9 -78 4 l-75 -7 -33 -107 c-18 -58 -33 -111 -32 -118 0
-20 -15 -23 -79 -12 l-61 11 0 129 c0 116 -2 129 -17 129 -10 0 -43 11 -75 24
l-56 23 -83 -94 c-45 -52 -89 -98 -99 -103 -12 -6 -29 0 -63 22 -44 29 -59 48
-37 48 6 0 10 5 10 11 0 6 13 29 29 52 39 58 81 143 81 164 0 10 -21 40 -47
67 l-46 48 -86 -16 c-47 -9 -98 -19 -113 -22 -22 -4 -29 0 -43 26 l-17 32 87
89 c72 73 86 93 81 111 -3 13 -9 42 -13 66 -3 23 -11 45 -16 49 -6 4 -58 18
-116 32 l-106 26 -6 43 c-3 24 -2 45 2 47 12 8 143 25 194 25 l51 0 21 73 22
72 -22 24 c-12 12 -57 46 -99 74 -43 28 -78 53 -78 56 1 17 58 86 73 89 9 2
63 -20 118 -48 l101 -51 44 48 c24 26 44 54 44 63 0 20 -22 91 -49 159 -24 60
-26 57 43 91 21 11 43 17 47 14 5 -3 38 -45 75 -94 64 -85 68 -89 98 -83 87
17 80 7 88 132 4 63 10 116 12 119 7 6 78 20 91 18 5 -2 22 -40 37 -87z m28
66 c-7 -8 -16 -15 -21 -15 -5 0 -9 7 -9 15 0 9 9 15 21 15 18 0 19 -2 9 -15z
m25 -25 c-15 -16 -32 -27 -38 -23 -11 7 33 52 52 52 9 1 4 -10 -14 -29z m12
-41 c-42 -35 -55 -16 -13 21 21 19 33 25 38 17 4 -7 -7 -23 -25 -38z m355 21
c6 0 0 -9 -13 -19 -20 -16 -25 -17 -32 -5 -11 19 1 37 20 30 8 -3 19 -6 25 -6z
m58 -9 c0 -5 -22 -28 -50 -51 -43 -36 -50 -39 -50 -22 0 12 17 33 42 51 43 32
58 38 58 22z m-737 -29 c9 -10 29 -42 46 -73 26 -49 29 -58 15 -63 -42 -16
-59 -6 -114 69 -30 41 -56 78 -57 82 -6 16 95 1 110 -15z m367 7 c0 -11 -50
-58 -62 -59 -16 0 -7 25 19 52 25 26 43 29 43 7z m363 -41 c-3 -13 -25 -38
-50 -56 -43 -32 -44 -33 -41 -11 2 18 77 89 92 89 2 0 1 -10 -1 -22z m-349
-40 c4 -21 3 -38 -1 -38 -4 0 -19 -3 -33 -7 l-25 -6 23 25 c30 34 28 44 -5 18
-38 -30 -43 -7 -7 31 32 33 39 30 48 -23z m676 -18 l35 -25 -38 -3 c-24 -2
-48 3 -64 13 -14 9 -41 23 -61 31 l-37 14 65 -3 c51 -2 74 -8 100 -27z m-332
1 c-5 -14 -98 -82 -98 -71 0 8 87 80 97 80 3 0 3 -4 1 -9z m2 -44 c0 -11 -91
-87 -105 -87 -17 0 2 24 48 59 59 46 57 45 57 28z m-320 -7 c0 -13 -11 -13
-30 0 -12 8 -11 10 8 10 12 0 22 -4 22 -10z m606 -5 c-25 -19 -37 -19 -30 0 4
8 16 15 28 15 21 -1 21 -1 2 -15z m65 -9 c-14 -17 -131 -58 -131 -47 0 9 107
59 129 60 10 1 11 -2 2 -13z m-366 -45 c-3 -6 -14 -11 -23 -11 -15 1 -15 2 2
15 21 16 32 13 21 -4z m329 -11 c-5 -5 -41 -21 -79 -35 -57 -22 -67 -23 -52
-9 16 18 128 64 136 57 3 -2 0 -8 -5 -13z m-1337 -47 c29 -15 53 -30 53 -34 0
-4 -8 -16 -17 -27 -18 -19 -19 -19 -107 28 -74 40 -85 49 -65 53 55 10 85 6
136 -20z m980 21 c-3 -3 -12 -4 -19 -1 -8 3 -5 6 6 6 11 1 17 -2 13 -5z m306
-33 c-13 -11 -45 -25 -73 -32 -27 -7 -50 -16 -50 -21 0 -4 -8 -8 -17 -8 -33 0
11 31 78 55 79 28 90 29 62 6z m-38 -51 c-3 -5 -16 -10 -28 -9 -21 0 -21 1 -2
9 28 12 37 12 30 0z m304 -9 c7 -5 16 -29 18 -55 l6 -46 -51 0 -51 0 -16 52
c-8 28 -15 53 -15 55 0 7 96 2 109 -6z m-349 -25 c0 -9 -40 -13 -46 -5 -3 5 6
9 20 9 14 0 26 -2 26 -4z m280 -105 c0 -12 -20 -25 -27 -18 -7 7 6 27 18 27 5
0 9 -4 9 -9z m-56 -26 c-9 -14 -19 -24 -21 -21 -7 7 16 46 28 46 5 0 2 -11 -7
-25z m-46 -20 c-6 -14 -17 -25 -25 -25 -18 0 -17 15 3 34 23 24 35 19 22 -9z
m-62 -14 c-8 -12 -46 -21 -46 -11 0 5 8 11 18 13 29 8 33 7 28 -2z m-46 -41
c-19 -13 -30 -13 -30 0 0 6 10 10 23 10 18 0 19 -2 7 -10z m40 -10 c-14 -10
-22 -22 -18 -25 4 -4 19 2 34 14 35 28 44 18 14 -14 -17 -18 -19 -25 -9 -25 8
0 20 5 27 12 9 9 12 7 12 -10 0 -16 -6 -22 -22 -22 -13 0 -40 -3 -60 -6 -36
-6 -38 -5 -38 20 0 29 43 75 70 75 10 1 6 -6 -10 -19z m87 -101 c27 -6 80 -24
118 -40 70 -28 70 -28 30 -29 -39 0 -220 54 -239 71 -14 13 34 11 91 -2z
m-2332 -144 c10 -44 22 -85 29 -91 6 -7 33 -14 59 -17 l48 -5 45 94 c50 104
51 105 140 83 l45 -12 -6 -41 c-4 -22 -16 -69 -27 -104 -11 -35 -17 -66 -14
-69 3 -3 27 -18 53 -33 l47 -27 44 34 c25 19 64 50 87 69 23 19 47 34 53 34
15 0 72 -71 72 -90 0 -8 -31 -51 -69 -96 l-69 -81 17 -49 c26 -77 20 -74 152
-74 117 0 119 0 119 -22 0 -13 3 -47 6 -75 7 -51 6 -53 -22 -63 -15 -6 -69
-16 -119 -23 l-90 -12 -19 -52 -18 -52 30 -26 c17 -14 58 -44 91 -66 34 -22
61 -42 61 -43 0 -9 -34 -102 -39 -107 -11 -12 -131 10 -192 35 -51 20 -60 22
-71 9 -6 -8 -29 -23 -50 -34 -21 -11 -38 -27 -38 -35 0 -9 11 -53 24 -98 42
-142 43 -132 -14 -161 -27 -14 -53 -25 -57 -25 -12 0 -85 116 -110 174 -23 55
-16 52 -117 48 -43 -2 -45 -3 -69 -55 -13 -29 -34 -83 -46 -120 -13 -37 -26
-69 -31 -72 -4 -2 -32 4 -61 14 -52 17 -54 20 -53 52 8 244 8 252 -16 261 -13
5 -38 21 -56 38 l-33 29 -80 -44 -81 -43 -30 38 c-16 21 -30 44 -30 51 0 7 28
39 61 70 l62 56 -31 64 c-16 35 -32 71 -35 80 -4 11 -32 22 -90 34 -95 20 -98
23 -90 98 l5 45 82 6 c111 10 116 12 116 49 0 18 9 51 20 75 l19 43 -79 86
c-44 48 -80 89 -80 92 0 4 17 23 36 44 45 48 54 46 157 -31 l78 -59 28 26 c16
15 47 35 70 46 l42 20 -7 102 -7 102 59 3 c33 2 62 -1 65 -7 4 -5 15 -46 24
-90z m108 28 c14 -43 22 -81 18 -84 -3 -4 -25 -10 -48 -14 l-42 -7 -6 39 c-4
21 -13 59 -20 85 -7 25 -11 49 -8 52 4 3 23 6 44 6 l38 0 24 -77z m302 17 c-3
-5 -10 -10 -16 -10 -5 0 -9 5 -9 10 0 6 7 10 16 10 8 0 12 -4 9 -10z m85 -17
c-1 -23 -13 -36 -70 -76 -91 -62 -95 -36 -5 29 36 25 64 49 61 52 -3 2 -18 -3
-33 -13 -78 -51 -73 -48 -73 -33 0 20 68 67 98 67 18 1 22 -4 22 -26z m1970 2
c-26 -28 -35 -27 -25 4 4 13 15 21 27 21 21 0 21 0 -2 -25z m80 15 c0 -16
-115 -101 -119 -88 -5 15 83 98 103 98 9 0 16 -4 16 -10z m6 -47 c-7 -22 -95
-87 -105 -78 -3 4 19 28 49 55 30 27 57 47 58 45 2 -2 1 -12 -2 -22z m-2072
-45 c-7 -18 -112 -88 -131 -88 -9 0 4 15 28 33 90 66 113 78 103 55z m-817
-17 c24 -5 57 -21 77 -39 l34 -30 -22 -22 -23 -21 -79 56 c-44 31 -81 59 -83
61 -7 7 51 4 96 -5z m2873 0 c0 -5 -7 -11 -15 -15 -15 -5 -20 5 -8 17 9 10 23
9 23 -2z m-1759 -31 c23 -19 23 -21 7 -34 -24 -18 -23 -29 1 -16 28 14 36 12
21 -5 -8 -10 -29 -15 -59 -15 -43 1 -48 4 -79 45 l-33 45 60 0 c44 0 65 -5 82
-20z m-317 -15 c-4 -8 -10 -15 -14 -15 -5 0 -17 -3 -27 -6 -13 -4 -11 0 7 15
30 24 42 27 34 6z m1796 -3 c-8 -3 -41 -23 -72 -44 -32 -21 -58 -34 -58 -29 0
15 121 92 133 84 7 -4 6 -8 -3 -11z m-78 -8 c-24 -17 -39 -14 -27 5 3 6 16 11
28 11 l21 0 -22 -16z m68 -29 c0 -8 -25 -29 -55 -46 -30 -17 -55 -35 -55 -40
0 -5 -7 -9 -16 -9 -8 0 -12 5 -9 11 6 9 125 99 132 99 2 0 3 -7 3 -15z m-1810
-20 c0 -16 -6 -25 -15 -25 -18 0 -18 5 -5 31 14 26 20 24 20 -6z m21 2 c-10
-9 -11 -8 -5 6 3 10 9 15 12 12 3 -3 0 -11 -7 -18z m-57 -2 c-5 -11 -11 -12
-25 -4 -26 13 -24 19 6 19 17 0 23 -4 19 -15z m321 -35 c-43 -20 -55 -19 -35
5 7 8 27 15 44 14 l31 -1 -40 -18z m1490 -10 c-9 -15 -45 -32 -45 -22 0 5 10
14 23 20 29 14 29 14 22 2z m-1481 -18 c-15 -13 -85 -34 -91 -28 -3 3 7 10 23
16 16 6 38 14 49 19 22 9 34 5 19 -7z m1446 -37 c-8 -10 -9 -15 -2 -15 6 0 15
8 21 17 9 17 11 16 48 -1 21 -10 70 -39 108 -64 l70 -47 -52 -9 c-50 -8 -53
-7 -120 36 -37 24 -81 53 -98 63 l-30 19 25 7 c39 11 43 10 30 -6z m-1501 -11
c-16 -20 -69 -47 -77 -40 -12 12 24 35 87 55 2 0 -2 -6 -10 -15z m-24 -54 c4
-6 -7 -10 -27 -9 -27 0 -30 2 -13 9 27 12 33 12 40 0z m-55 -45 c-7 -8 -14
-15 -15 -15 -2 0 -5 7 -9 15 -4 10 1 15 16 15 17 0 18 -2 8 -15z m70 8 c0 -5
-18 -21 -40 -36 -29 -21 -40 -24 -40 -13 0 8 12 24 28 35 27 21 52 27 52 14z
m182 -25 c-7 -7 -12 -8 -12 -2 0 6 3 14 7 17 3 4 9 5 12 2 2 -3 -1 -11 -7 -17z
m48 12 c0 -5 -5 -10 -11 -10 -5 0 -7 5 -4 10 3 6 8 10 11 10 2 0 4 -4 4 -10z
m-83 -6 c-3 -3 -12 -4 -19 -1 -8 3 -5 6 6 6 11 1 17 -2 13 -5z m-129 -16 c-6
-18 -57 -53 -65 -44 -5 4 5 19 20 32 30 26 51 31 45 12z m1742 2 c0 -5 -4 -10
-10 -10 -5 0 -38 -22 -72 -50 -34 -27 -69 -50 -77 -50 -17 0 13 26 97 85 51
36 62 40 62 25z m-1521 -9 c40 6 47 4 67 -20 28 -31 28 -30 10 -72 -15 -35
-15 -34 -31 35 l-6 28 -96 -6 c-74 -5 -98 -4 -104 6 -19 29 -9 34 53 28 34 -3
82 -3 107 1z m-184 -22 c0 -8 -12 -15 -30 -17 -30 -4 -30 -4 -11 17 21 23 41
23 41 0z m1619 6 c-25 -19 -35 -19 -28 0 4 8 16 15 27 15 20 0 20 0 1 -15z
m-354 -5 c0 -5 -5 -10 -11 -10 -5 0 -7 5 -4 10 3 6 8 10 11 10 2 0 4 -4 4 -10z
m413 -32 c-13 -23 -28 -34 -48 -36 -29 -4 -29 -3 15 32 25 20 47 36 48 36 2 0
-5 -15 -15 -32z m-373 15 c0 -5 -25 -21 -55 -38 -30 -16 -55 -33 -55 -37 0 -4
-7 -8 -17 -8 -25 0 12 37 67 66 49 25 60 28 60 17z m-1140 -38 c-13 -14 -27
-25 -32 -25 -4 0 -8 11 -8 25 0 21 5 25 32 25 l31 0 -23 -25z m1140 -16 c-32
-27 -89 -41 -75 -19 9 14 99 59 105 53 3 -3 -11 -18 -30 -34z m-1091 7 c-2 -1
-19 -14 -37 -29 -52 -42 -62 -31 -12 14 25 23 46 36 48 29 2 -6 2 -12 1 -14z
m11 -30 c0 -18 -78 -81 -88 -71 -6 6 73 85 84 85 2 0 4 -6 4 -14z m986 -41
c-31 -24 -12 -28 27 -6 45 25 58 5 14 -22 -16 -10 -27 -21 -23 -24 3 -3 17 2
32 12 22 14 28 15 35 4 6 -10 2 -17 -11 -23 -11 -5 -20 -13 -20 -18 0 -5 9 -4
19 2 23 12 27 7 35 -40 9 -51 -29 -124 -66 -128 -16 -2 -28 0 -28 5 0 40 -25
144 -45 190 -14 30 -25 57 -25 59 0 2 17 4 38 4 35 -1 36 -2 18 -15z m-1003
-25 c-10 -17 -26 -30 -37 -30 -17 0 -14 5 14 30 44 37 45 37 23 0z m275 -26
c2 -16 -4 -38 -12 -49 -14 -19 -15 -16 -13 32 2 56 20 68 25 17z m-44 -41 c-6
-55 -18 -83 -34 -83 -8 0 12 109 24 128 14 23 16 12 10 -45z m-324 9 c0 -12
-39 -46 -45 -41 -6 7 24 49 36 49 5 0 9 -4 9 -8z m50 -7 c-7 -8 -19 -15 -26
-15 -8 0 -11 6 -8 15 4 8 15 15 26 15 17 0 18 -3 8 -15z m785 5 c-3 -5 -17
-10 -30 -10 -13 0 -27 5 -30 10 -4 6 8 10 30 10 22 0 34 -4 30 -10z m-895 -19
c0 -12 -20 -25 -27 -18 -7 7 6 27 18 27 5 0 9 -4 9 -9z m335 -33 c-7 -39 -18
-57 -37 -58 -12 0 3 64 20 83 22 25 25 22 17 -25z m465 33 c0 -10 -30 -24 -37
-17 -3 3 -2 9 2 15 8 13 35 15 35 2z m-846 -11 c-6 -6 -21 -6 -39 -1 -30 9
-30 9 10 10 25 1 36 -2 29 -9z m886 3 c-1 -11 -100 -73 -100 -63 0 5 17 19 38
31 20 13 39 27 40 31 5 10 22 10 22 1z m85 -22 l15 -29 -45 0 c-37 1 -45 4
-45 20 0 16 27 35 52 37 4 1 14 -12 23 -28z m-1076 -20 c-27 -22 -32 -21 -23
3 3 9 15 16 26 16 19 0 19 -1 -3 -19z m61 14 c0 -12 -55 -54 -70 -54 -9 0 0
12 20 29 34 28 50 36 50 25z m18 -32 c-15 -15 -30 -24 -33 -21 -8 7 35 48 49
48 6 0 -2 -12 -16 -27z m857 -28 c-49 -45 -65 -53 -65 -36 0 13 102 93 109 86
3 -3 -17 -26 -44 -50z m665 32 l35 -15 -41 -1 c-47 -1 -104 16 -104 31 0 14
65 5 110 -15z m-1500 -22 c-7 -9 -15 -13 -18 -10 -3 2 1 11 8 20 7 9 15 13 18
10 3 -2 -1 -11 -8 -20z m324 10 c-6 -16 -24 -21 -24 -7 0 11 11 22 21 22 5 0
6 -7 3 -15z m1059 -1 c26 -9 47 -20 47 -26 0 -19 -33 -123 -62 -197 -26 -67
-28 -75 -13 -84 9 -5 31 -22 49 -37 l33 -29 36 24 c20 14 39 25 42 25 4 0 25
15 48 33 23 18 54 41 68 49 26 16 27 16 64 -22 l37 -38 -52 -64 c-29 -34 -69
-77 -88 -94 l-35 -30 16 -49 c10 -27 17 -61 17 -77 0 -16 6 -30 13 -32 6 -2
41 -9 77 -16 61 -12 93 -16 148 -19 20 -1 22 -6 22 -65 l0 -63 -90 -6 c-49 -4
-109 -4 -134 -1 l-44 6 -28 -58 c-15 -33 -37 -69 -48 -82 l-20 -22 55 -58 c30
-31 65 -69 77 -83 l23 -27 -31 -35 c-47 -54 -60 -54 -137 -1 -114 79 -108 65
-62 152 22 41 38 79 36 85 -2 6 -23 -25 -47 -70 -38 -73 -49 -85 -101 -115
-32 -18 -61 -39 -63 -46 -3 -7 -2 -41 3 -75 4 -34 6 -79 4 -99 -5 -35 -7 -37
-51 -44 -37 -5 -48 -3 -58 11 -15 20 -34 102 -34 146 0 35 -2 36 -101 42 l-76
5 -13 -41 c-20 -69 -52 -137 -64 -137 -6 0 -28 5 -49 11 l-38 10 7 62 c3 34
10 80 15 102 4 22 5 43 1 47 -4 3 -35 17 -69 31 l-62 25 -97 -69 c-54 -38
-100 -69 -103 -69 -7 0 -51 66 -51 76 0 4 16 27 36 51 50 61 104 143 104 158
0 7 -7 18 -15 25 -8 7 -22 36 -32 66 -14 46 -20 54 -47 59 -17 4 -64 19 -103
33 -78 28 -80 31 -62 95 l10 37 63 0 c35 0 84 3 109 6 46 7 46 7 62 60 8 29
20 56 25 59 22 14 7 45 -53 111 -34 39 -72 83 -84 99 l-21 30 37 42 36 42 75
-60 c41 -32 92 -72 113 -89 l39 -29 50 39 c27 22 54 40 58 40 25 0 38 37 50
139 12 108 14 111 39 117 14 3 32 8 39 10 15 4 37 -43 73 -153 27 -81 20 -77
145 -86 l62 -5 63 129 c35 71 64 129 64 129 1 0 22 -7 48 -16z m-373 -29 c-7
-8 -17 -15 -22 -15 -6 0 -5 7 2 15 7 8 17 15 22 15 6 0 5 -7 -2 -15z m465 -14
c-34 -21 -38 -21 -29 3 3 9 17 16 33 16 l26 0 -30 -19z m85 9 c0 -10 -133 -91
-139 -84 -7 7 41 54 55 54 6 0 22 9 35 20 26 21 49 26 49 10z m-1630 -10 c0
-6 11 -8 28 -4 24 7 26 6 13 -9 -15 -18 -5 -22 19 -8 21 14 34 1 13 -14 -24
-18 -10 -30 16 -14 26 17 40 3 15 -16 -21 -16 -12 -20 14 -6 12 7 25 2 47 -16
l30 -24 -45 6 c-43 7 -94 34 -138 75 -12 11 -26 20 -31 20 -5 0 -13 5 -16 10
-3 6 3 10 14 10 12 0 21 -5 21 -10z m901 -28 c-7 -2 -28 -18 -47 -34 -19 -17
-34 -26 -34 -22 1 24 83 90 89 72 2 -7 -2 -14 -8 -16z m192 -4 c-10 -11 -19
-15 -21 -8 -5 15 18 41 30 34 5 -3 1 -15 -9 -26z m525 -20 c-15 -23 -138 -101
-146 -94 -2 3 0 12 6 22 10 18 144 106 151 99 2 -2 -3 -15 -11 -27z m-488 7
c0 -22 -36 -59 -44 -46 -8 12 21 61 35 61 5 0 9 -7 9 -15z m200 -6 c0 -5 -24
-9 -52 -8 l-53 1 45 12 c46 13 60 12 60 -5z m-430 -14 c-7 -8 -20 -15 -28 -15
-13 0 -12 3 4 15 25 19 40 19 24 0z m270 -11 c0 -6 -59 -64 -66 -64 -11 0 -1
27 18 47 20 21 48 31 48 17z m140 -9 c0 -2 -5 -16 -12 -30 -10 -22 -16 -25
-42 -19 -37 8 -32 4 -40 32 -7 21 -5 22 43 22 28 0 51 -2 51 -5z m-110 -34 c0
-13 -9 -20 -30 -23 -36 -5 -37 -2 -9 29 24 24 39 22 39 -6z m400 12 c0 -17
-18 -31 -82 -67 -38 -20 -68 -41 -68 -46 0 -14 4 -13 59 22 28 17 53 29 56 26
11 -11 -18 -68 -33 -68 -15 1 -15 2 1 14 31 24 18 29 -19 7 -43 -26 -74 -27
-74 -3 0 27 10 36 80 80 67 42 80 47 80 35z m-1480 -38 c-27 -29 -32 -28 -23
3 3 14 13 22 26 22 20 0 20 -1 -3 -25z m46 6 c-4 -5 -25 -24 -49 -42 l-42 -33
44 47 c40 41 64 56 47 28z m503 -2 c-26 -20 -19 -25 12 -8 12 6 28 8 37 4 13
-5 11 -10 -13 -30 -35 -28 -27 -32 16 -9 39 20 51 9 19 -18 -20 -16 -21 -19
-5 -13 44 16 52 16 65 0 13 -15 11 -20 -9 -36 -13 -11 -27 -19 -31 -19 -5 0
-32 19 -60 43 -29 23 -68 53 -86 67 -18 14 -34 27 -34 30 0 3 26 6 57 6 l57 2
-25 -19z m-445 3 c3 -5 1 -25 -5 -45 -9 -33 -14 -37 -41 -37 l-32 0 34 35 c18
19 31 37 29 40 -3 2 -23 -13 -44 -35 -22 -22 -46 -40 -54 -40 -18 0 78 89 96
90 6 0 14 -4 17 -8z m1043 -25 c3 -4 -20 -6 -53 -6 -46 1 -53 3 -29 9 34 8 72
6 82 -3z m633 -53 l35 -34 -58 0 c-52 0 -60 3 -87 33 -16 17 -30 36 -30 41 0
5 24 6 53 2 41 -6 59 -14 87 -42z m-2827 14 c2 -7 -2 -26 -10 -42 -20 -38 -37
-20 -21 22 13 34 23 40 31 20z m-52 -32 c-11 -28 -31 -36 -31 -12 0 15 30 50
36 43 3 -2 0 -16 -5 -31z m767 14 c-7 -11 -21 -20 -32 -20 -16 0 -16 2 5 20
31 25 42 25 27 0z m36 -5 c-9 -14 -20 -22 -25 -19 -12 7 12 44 29 44 9 0 8 -6
-4 -25z m30 -9 c-6 -16 -24 -23 -24 -8 0 10 22 33 27 28 2 -2 1 -11 -3 -20z
m-749 -7 c-10 -15 -25 -10 -19 6 4 8 10 12 15 9 5 -3 7 -10 4 -15z m795 17 c0
-2 -7 -7 -16 -10 -8 -3 -12 -2 -9 4 6 10 25 14 25 6z m-926 -21 c-4 -8 -16
-15 -28 -15 -21 1 -21 1 -2 15 25 19 37 19 30 0z m796 -24 c0 -5 -6 -11 -12
-14 -7 -2 -10 -8 -5 -12 4 -5 18 1 30 13 34 32 42 14 10 -20 -34 -36 -18 -37
19 -1 15 14 31 23 35 19 4 -4 -8 -20 -27 -36 -19 -16 -31 -32 -27 -36 4 -4 20
5 35 20 l29 27 21 -72 c12 -40 20 -74 18 -76 -2 -2 -29 -7 -59 -10 -48 -5 -56
-3 -60 13 -35 119 -49 169 -54 180 -4 10 3 14 21 14 14 0 26 -4 26 -9z m1753
-11 c-3 -11 -9 -20 -14 -20 -10 0 -12 24 -2 33 13 13 21 7 16 -13z m312 -5
c-32 -14 -41 -13 -30 4 3 6 18 11 33 10 l27 -1 -30 -13z m69 -5 c-11 -11 -157
-71 -161 -66 -7 6 23 23 82 46 33 13 64 28 69 32 13 10 22 0 10 -12z m-2424
-40 c0 -5 -4 -10 -9 -10 -6 0 -13 5 -16 10 -3 6 1 10 9 10 9 0 16 -4 16 -10z
m2373 -23 c-9 -13 -57 -40 -107 -61 l-90 -37 32 34 c18 19 38 34 45 34 7 1 39
13 72 27 33 14 61 26 63 26 2 0 -5 -10 -15 -23z m-2451 -7 c-12 -11 -24 -20
-27 -20 -3 0 -1 9 5 20 6 11 18 20 27 20 14 0 13 -3 -5 -20z m66 1 c-4 -12
-109 -83 -115 -78 -6 7 9 37 19 37 6 0 23 11 40 25 29 24 63 34 56 16z m7 -33
c-3 -7 -37 -35 -75 -61 -50 -35 -70 -44 -70 -32 0 8 8 19 17 22 10 4 42 24 73
44 64 44 61 43 55 27z m2320 -38 c-11 -12 -31 -20 -49 -20 l-31 0 35 19 c48
27 69 27 45 1z m-2345 -25 c0 -8 -6 -15 -12 -15 -7 0 -39 -20 -70 -45 -32 -25
-58 -43 -58 -41 0 13 13 36 21 36 5 0 32 18 61 40 29 22 54 40 56 40 1 0 2 -7
2 -15z m2243 -31 c-5 -15 -3 -15 25 0 42 22 52 20 23 -5 -30 -24 -21 -37 11
-15 31 22 45 20 23 -4 -22 -24 -14 -38 9 -15 17 18 15 20 31 -30 3 -11 -4 -15
-28 -15 -18 0 -48 -3 -68 -6 -35 -6 -37 -5 -42 27 -3 19 -8 44 -12 57 -6 18
-4 22 14 22 15 0 19 -4 14 -16z m-1823 2 c0 -2 -8 -10 -17 -17 -16 -13 -17
-12 -4 4 13 16 21 21 21 13z m-440 -18 c0 -22 -14 -35 -45 -42 l-30 -6 35 30
c40 34 40 34 40 18z m348 -8 c-7 -11 -16 -20 -21 -20 -4 0 -3 9 3 20 6 11 15
20 20 20 6 0 5 -9 -2 -20z m46 6 c-6 -16 -34 -30 -34 -18 0 5 5 13 12 20 16
16 29 15 22 -2z m-84 -16 c-6 -11 -21 -20 -33 -20 -20 0 -19 2 8 19 38 25 38
25 25 1z m2240 -92 c19 -11 -173 0 -203 12 -13 5 21 6 83 3 58 -3 112 -10 120
-15z m-11 -51 c-22 -18 -24 -18 -27 -2 -5 21 15 35 36 27 12 -4 10 -9 -9 -25z
m36 -22 c-33 -30 -63 -55 -67 -55 -18 0 9 39 50 72 72 57 85 44 17 -17z m69
-7 c-3 -4 -26 -22 -52 -40 -26 -17 -50 -36 -53 -41 -4 -6 -15 -6 -25 -2 -16 6
-16 8 -4 13 8 3 39 27 69 54 39 36 56 46 62 37 4 -7 5 -17 3 -21z m6 -53 c0
-17 -6 -25 -17 -25 -10 0 -29 -3 -43 -6 -23 -6 -22 -4 10 24 43 38 50 39 50 7z
m-370 -53 c0 -4 -13 -13 -30 -19 -33 -12 -33 -12 -24 11 6 16 54 23 54 8z m1
-39 c-41 -19 -76 -31 -79 -29 -7 8 132 73 143 67 5 -2 -24 -20 -64 -38z m38
-25 c-18 -36 -41 -58 -58 -57 -11 0 -9 4 7 11 12 6 22 15 22 20 0 11 -7 10
-40 -7 -52 -27 -80 -35 -80 -24 0 9 134 79 153 79 4 0 2 -10 -4 -22z m-99 -93
c-16 -19 -1 -19 24 0 28 21 42 19 23 -3 -24 -26 -21 -36 5 -18 22 15 25 14 80
-41 32 -32 58 -60 58 -64 0 -3 -26 -6 -57 -7 l-58 -1 -55 66 c-68 82 -68 83
-35 83 23 0 26 -2 15 -15z m-944 -160 c-12 -36 -26 -65 -33 -65 -17 0 -16 10
3 56 13 31 41 74 49 74 0 0 -8 -29 -19 -65z m40 20 c-3 -27 -26 -60 -26 -38 0
15 18 63 24 63 3 0 3 -11 2 -25z m34 11 c0 -3 -4 -8 -10 -11 -5 -3 -10 -1 -10
4 0 6 5 11 10 11 6 0 10 -2 10 -4z m660 -9 c0 -17 -20 -37 -37 -37 -10 0 -10
6 3 25 18 27 34 33 34 12z m-788 -47 c-9 -22 -23 -40 -29 -40 -10 0 -10 6 -1
28 15 34 28 52 38 52 5 0 1 -18 -8 -40z m723 21 c-3 -6 -14 -11 -23 -11 -15 1
-15 2 2 15 21 16 32 13 21 -4z m436 -15 c-13 -14 -40 -26 -64 -30 -23 -4 -52
-13 -64 -21 -14 -9 -24 -11 -28 -5 -3 6 0 12 7 15 79 27 128 47 144 59 28 21
31 10 5 -18z m-331 14 c0 -5 -9 -10 -21 -10 -11 0 -17 5 -14 10 3 6 13 10 21
10 8 0 14 -4 14 -10z m290 6 c0 -2 -14 -9 -31 -15 -27 -9 -30 -9 -19 4 11 13
50 22 50 11z m-1167 -46 c-3 -12 -14 -20 -27 -20 -21 1 -21 1 3 20 29 25 30
25 24 0z m752 -4 c-20 -14 -35 -12 -35 5 0 5 12 9 27 9 26 0 26 -1 8 -14z m75
5 c0 -5 -22 -25 -50 -45 -40 -29 -50 -33 -50 -18 0 9 17 29 38 44 38 28 62 35
62 19z m-405 -23 c-19 -11 -30 -5 -21 11 4 6 14 7 22 4 15 -5 14 -7 -1 -15z
m65 -3 c0 -15 -98 -71 -107 -61 -10 9 9 27 55 51 57 29 52 28 52 10z m667 -1
c-3 -3 -12 -4 -19 -1 -8 3 -5 6 6 6 11 1 17 -2 13 -5z m-317 -18 c0 -8 -22
-31 -50 -51 -27 -20 -50 -44 -50 -53 0 -12 6 -10 28 9 71 64 72 64 72 41 0
-12 -6 -22 -13 -22 -7 0 -28 -13 -47 -30 -19 -16 -38 -29 -42 -30 -5 0 -8 18
-8 39 0 35 5 43 48 74 53 40 62 43 62 23z m-365 -35 c-6 -11 -117 -73 -121
-68 -8 7 16 27 61 50 54 28 70 33 60 18z m-24 -60 c-9 -16 -60 -35 -70 -26 -4
5 61 45 72 45 4 0 3 -8 -2 -19z m379 -11 c-6 -11 -18 -20 -28 -20 -13 0 -12 4
8 20 31 25 33 25 20 0z"/>
<path d="M2950 3372 c0 -10 60 -36 67 -29 2 3 -9 13 -26 21 -34 18 -41 19 -41
8z"/>
<path d="M2950 3331 c0 -5 9 -11 20 -14 24 -6 27 8 4 17 -21 8 -24 8 -24 -3z"/>
<path d="M2935 3290 c3 -5 11 -10 16 -10 6 0 7 5 4 10 -3 6 -11 10 -16 10 -6
0 -7 -4 -4 -10z"/>
<path d="M2920 3260 c0 -5 5 -10 11 -10 5 0 7 5 4 10 -3 6 -8 10 -11 10 -2 0
-4 -4 -4 -10z"/>
<path d="M2104 3194 c-115 -69 -251 -227 -311 -362 -31 -70 -34 -198 -8 -277
54 -160 190 -295 377 -374 57 -23 75 -26 188 -26 117 0 129 2 183 28 119 59
239 204 294 355 31 84 41 225 23 303 -39 168 -156 291 -323 340 -76 22 -237
49 -298 49 -57 0 -73 -4 -125 -36z m111 16 c3 -5 -1 -10 -10 -10 -9 0 -13 5
-10 10 3 6 8 10 10 10 2 0 7 -4 10 -10z m-48 -16 c-3 -3 -12 -4 -19 -1 -8 3
-5 6 6 6 11 1 17 -2 13 -5z m123 -9 c-21 -25 -2 -30 23 -7 13 12 32 22 42 22
17 0 17 -1 0 -20 -21 -23 -9 -26 19 -5 30 22 49 19 41 -6 -7 -21 -6 -21 16 -5
33 23 52 21 44 -5 -7 -21 -6 -21 15 -6 29 20 49 12 42 -16 -5 -21 -4 -21 14
-6 10 8 27 14 37 11 18 -4 18 -5 1 -23 -19 -21 -13 -24 17 -9 25 14 44 3 28
-16 -10 -12 -6 -13 20 -8 30 6 45 -9 19 -19 -7 -2 -10 -8 -5 -12 4 -5 13 -3
19 3 14 14 39 -3 32 -23 -3 -8 1 -12 13 -12 11 1 17 -4 15 -14 -1 -10 6 -19
18 -22 13 -3 18 -11 14 -20 -3 -8 2 -17 10 -20 8 -3 24 -36 35 -73 74 -237
-48 -531 -274 -666 -47 -28 -54 -29 -131 -24 -219 15 -424 133 -523 299 -29
50 -32 59 -20 74 12 15 12 16 -3 10 -19 -7 -25 7 -8 18 16 10 12 25 -5 19 -9
-4 -15 0 -15 9 0 8 7 20 15 27 8 7 15 17 15 22 0 7 -5 6 -13 -1 -24 -19 -27 1
-5 32 l21 29 -22 -7 c-20 -6 -21 -5 -12 12 5 11 17 25 25 33 9 7 16 17 16 23
0 5 -9 2 -20 -8 -18 -16 -20 -16 -20 -1 0 9 11 26 25 38 26 23 36 49 10 28
-27 -22 -18 14 10 40 13 12 22 26 20 30 -3 4 26 34 63 66 37 33 72 64 77 70 6
6 51 42 100 80 50 37 82 59 73 48 -30 -35 -20 -37 20 -5 40 33 75 43 52 16z
m-165 -15 c-3 -5 -16 -10 -28 -10 -18 0 -19 2 -7 10 20 13 43 13 35 0z m40 -8
c-6 -4 -32 -25 -60 -47 -27 -21 -69 -56 -92 -79 -24 -22 -45 -37 -48 -34 -9 9
180 168 200 168 6 0 6 -3 0 -8z m-85 -21 c0 -5 -7 -12 -16 -15 -24 -9 -28 -7
-14 9 14 17 30 20 30 6z m-55 -51 c-3 -5 -13 -10 -21 -10 -8 0 -12 5 -9 10 3
6 13 10 21 10 8 0 12 -4 9 -10z m-45 -45 c-7 -8 -19 -15 -27 -15 -13 0 -13 3
-3 15 7 8 19 15 27 15 13 0 13 -3 3 -15z m-50 -50 c-7 -8 -17 -15 -22 -15 -6
0 -5 7 2 15 7 8 17 15 22 15 6 0 5 -7 -2 -15z m-40 -60 c-7 -8 -17 -15 -23
-15 -5 0 -2 9 8 20 21 23 35 19 15 -5z m-30 -44 c0 -5 -7 -14 -15 -21 -16 -14
-18 -10 -9 14 6 17 24 22 24 7z m-30 -70 c-11 -21 -30 -29 -30 -12 0 12 31 43
37 37 3 -2 0 -14 -7 -25z m-7 -51 c-6 -22 -33 -28 -33 -7 0 17 10 27 26 27 7
0 10 -8 7 -20z m-3 -49 c0 -5 -7 -14 -15 -21 -13 -10 -15 -9 -15 9 0 12 6 21
15 21 8 0 15 -4 15 -9z m0 -55 c0 -21 -21 -31 -30 -15 -5 7 -6 17 -4 21 9 14
34 9 34 -6z m0 -57 c0 -24 -23 -21 -28 4 -2 10 3 17 12 17 10 0 16 -9 16 -21z
m10 -45 c0 -9 -5 -14 -12 -12 -18 6 -21 28 -4 28 9 0 16 -7 16 -16z m18 -52
c2 -7 -2 -10 -12 -6 -9 3 -16 11 -16 16 0 13 23 5 28 -10z m65 -93 c26 -38 67
-83 90 -100 53 -40 206 -112 272 -129 69 -18 77 -29 15 -19 -154 24 -320 124
-405 244 -48 67 -52 75 -32 75 6 -1 33 -32 60 -71z"/>
<path d="M2467 3025 c-10 -21 -16 -40 -13 -42 7 -7 38 56 34 68 -2 6 -11 -6
-21 -26z"/>
<path d="M2492 2991 c-33 -60 -39 -76 -23 -67 13 9 73 126 64 126 -5 0 -23
-26 -41 -59z"/>
<path d="M2531 2985 c-23 -40 -25 -45 -13 -45 10 0 45 70 39 77 -3 2 -14 -12
-26 -32z"/>
<path d="M2573 2978 c-19 -25 -24 -38 -14 -38 11 0 35 39 28 46 -2 3 -9 -1
-14 -8z"/>
<path d="M2596 2945 c-3 -8 -1 -15 3 -15 5 0 11 7 15 15 3 8 1 15 -3 15 -5 0
-11 -7 -15 -15z"/>
<path d="M2269 2807 c-97 -64 -87 -199 18 -243 74 -32 144 -9 178 56 21 40 19
67 -10 128 -19 40 -33 56 -59 67 -50 21 -88 19 -127 -8z m134 -17 c10 -10 5
-11 -22 -6 -18 3 -50 6 -70 6 -28 0 -33 3 -21 11 19 13 98 5 113 -11z m-58
-25 c6 -2 -14 -4 -43 -4 -29 -1 -51 3 -48 7 4 7 67 5 91 -3z m99 -35 c20 -51
20 -75 -1 -111 -19 -31 -41 -32 -75 -1 -26 22 -25 105 2 132 32 32 56 25 74
-20z m-114 0 c0 -5 -20 -10 -44 -10 -25 0 -48 -4 -51 -10 -4 -6 14 -10 45 -10
64 0 65 -23 2 -28 -57 -4 -54 -22 4 -22 27 0 43 -4 39 -10 -3 -5 -15 -10 -26
-10 -10 0 -19 -5 -19 -11 0 -6 13 -9 28 -8 18 2 39 -5 56 -19 l29 -22 -32 0
c-77 0 -141 55 -141 120 0 20 3 40 7 43 10 11 103 8 103 -3z"/>
<path d="M2479 2507 c-27 -35 -129 -201 -129 -211 0 -14 19 -4 25 13 3 10 35
63 70 117 64 97 84 145 34 81z"/>
<path d="M2333 2366 c-28 -44 -49 -83 -47 -86 7 -6 33 28 74 97 52 86 29 76
-27 -11z"/>
<path d="M2443 2374 c-22 -35 -37 -64 -32 -64 11 0 70 81 81 111 14 38 -8 17
-49 -47z"/>
<path d="M2503 2398 c-18 -22 -45 -80 -40 -85 3 -2 17 16 32 42 26 43 30 71 8
43z"/>
<path d="M2273 2346 c-18 -26 -28 -46 -23 -46 13 0 63 67 58 80 -2 6 -18 -9
-35 -34z"/>
<path d="M2530 2350 c-6 -12 -9 -24 -7 -27 3 -2 11 5 17 17 6 12 9 24 7 27 -3
2 -11 -5 -17 -17z"/>
<path d="M1571 3174 c-22 -27 -27 -44 -13 -44 9 0 44 61 38 67 -2 2 -13 -8
-25 -23z"/>
<path d="M1593 3150 c-12 -28 -8 -39 8 -23 6 6 9 19 6 29 -3 17 -5 16 -14 -6z"/>
<path d="M1616 3114 c-9 -22 3 -32 14 -14 12 19 12 30 1 30 -5 0 -12 -7 -15
-16z"/>
<path d="M3184 3104 c3 -9 6 -20 6 -25 0 -5 4 -9 9 -9 4 0 6 11 3 25 -2 14 -9
25 -14 25 -6 0 -7 -7 -4 -16z"/>
<path d="M1646 3094 c-9 -22 3 -32 14 -14 12 19 12 30 1 30 -5 0 -12 -7 -15
-16z"/>
<path d="M2816 3094 c-10 -25 1 -29 14 -5 6 12 7 21 1 21 -5 0 -12 -7 -15 -16z"/>
<path d="M3150 3083 c0 -13 5 -23 10 -23 13 0 13 11 0 30 -8 12 -10 11 -10 -7z"/>
<path d="M2862 3065 c-16 -34 -15 -40 2 -26 16 13 28 51 17 51 -4 0 -13 -11
-19 -25z"/>
<path d="M2987 3025 c-20 -35 -37 -67 -37 -70 0 -4 -13 -26 -30 -50 -32 -47
-35 -55 -21 -55 8 0 141 223 141 236 0 18 -22 -7 -53 -61z"/>
<path d="M2896 3035 c-25 -46 -14 -56 13 -12 23 37 25 47 13 47 -4 0 -16 -16
-26 -35z"/>
<path d="M3120 3060 c0 -5 5 -10 11 -10 5 0 7 5 4 10 -3 6 -8 10 -11 10 -2 0
-4 -4 -4 -10z"/>
<path d="M2932 3010 c-18 -29 -31 -57 -29 -63 2 -6 18 13 36 42 17 29 31 57
29 63 -2 6 -18 -13 -36 -42z"/>
<path d="M3086 3045 c4 -8 8 -15 10 -15 2 0 4 7 4 15 0 8 -4 15 -10 15 -5 0
-7 -7 -4 -15z"/>
<path d="M2926 2825 c-15 -25 -26 -48 -23 -51 5 -5 67 79 67 90 0 17 -18 1
-44 -39z"/>
<path d="M2961 2802 c-7 -15 -31 -55 -53 -90 -22 -34 -38 -65 -34 -69 7 -8 5
-10 49 58 51 82 68 117 58 123 -4 3 -14 -7 -20 -22z"/>
<path d="M1460 2773 c0 -10 5 -25 10 -33 7 -11 10 -7 10 18 0 17 -4 32 -10 32
-5 0 -10 -8 -10 -17z"/>
<path d="M2977 2709 c-93 -146 -129 -209 -125 -220 2 -7 32 35 66 92 35 57 77
126 94 152 17 26 28 51 25 54 -3 3 -30 -32 -60 -78z"/>
<path d="M1500 2749 c0 -11 5 -17 10 -14 6 3 10 13 10 21 0 8 -4 14 -10 14 -5
0 -10 -9 -10 -21z"/>
<path d="M3016 2684 c-25 -42 -46 -78 -46 -80 0 -1 -25 -42 -55 -90 -30 -48
-52 -91 -49 -96 3 -4 48 63 101 149 117 194 116 193 104 193 -5 0 -30 -34 -55
-76z"/>
<path d="M1530 2741 c0 -6 5 -13 10 -16 6 -3 10 1 10 9 0 9 -4 16 -10 16 -5 0
-10 -4 -10 -9z"/>
<path d="M3062 2693 c-17 -26 -29 -49 -26 -52 6 -7 27 17 53 62 33 54 9 46
-27 -10z"/>
<path d="M1570 2720 c0 -5 5 -10 10 -10 6 0 10 5 10 10 0 6 -4 10 -10 10 -5 0
-10 -4 -10 -10z"/>
<path d="M3238 2690 c-4 -14 -8 -36 -8 -50 1 -22 2 -23 11 -7 6 9 9 32 7 50
-3 31 -3 31 -10 7z"/>
<path d="M3157 2663 c-11 -10 -8 -43 3 -43 6 0 10 11 10 25 0 26 -2 29 -13 18z"/>
<path d="M3190 2645 c0 -14 5 -25 10 -25 6 0 10 11 10 25 0 14 -4 25 -10 25
-5 0 -10 -11 -10 -25z"/>
<path d="M3117 2646 c-4 -10 -5 -21 -2 -24 9 -9 17 6 13 25 -3 17 -4 17 -11
-1z"/>
<path d="M1675 2360 c3 -5 8 -10 11 -10 2 0 4 5 4 10 0 6 -5 10 -11 10 -5 0
-7 -4 -4 -10z"/>
<path d="M1560 2348 c0 -9 5 -20 11 -23 17 -11 20 0 4 21 -13 17 -14 17 -15 2z"/>
<path d="M1590 2353 c0 -4 5 -15 10 -23 8 -13 10 -13 10 2 0 9 -4 20 -10 23
-5 3 -10 3 -10 -2z"/>
<path d="M1630 2350 c0 -5 5 -10 10 -10 6 0 10 5 10 10 0 6 -4 10 -10 10 -5 0
-10 -4 -10 -10z"/>
<path d="M2967 2253 c-10 -9 -9 -23 2 -23 5 0 11 7 15 15 5 15 -5 20 -17 8z"/>
<path d="M3012 2229 c-7 -12 -11 -24 -8 -27 6 -6 35 27 36 41 0 14 -15 7 -28
-14z"/>
<path d="M3091 2219 c-12 -16 -21 -35 -19 -41 2 -6 15 5 27 26 29 46 23 57 -8
15z"/>
<path d="M3053 2215 c-9 -25 4 -29 17 -6 7 15 7 21 0 21 -6 0 -13 -7 -17 -15z"/>
<path d="M1938 2083 c7 -3 16 -2 19 1 4 3 -2 6 -13 5 -11 0 -14 -3 -6 -6z"/>
<path d="M1905 2050 c4 -6 11 -8 16 -5 14 9 11 15 -7 15 -8 0 -12 -5 -9 -10z"/>
<path d="M2670 2050 c0 -5 4 -10 9 -10 6 0 13 5 16 10 3 6 -1 10 -9 10 -9 0
-16 -4 -16 -10z"/>
<path d="M1875 2020 c3 -5 14 -10 23 -10 15 0 15 2 2 10 -20 13 -33 13 -25 0z"/>
<path d="M2690 2010 c0 -5 4 -10 9 -10 6 0 13 5 16 10 3 6 -1 10 -9 10 -9 0
-16 -4 -16 -10z"/>
<path d="M1835 2000 c3 -5 13 -10 21 -10 8 0 12 5 9 10 -3 6 -13 10 -21 10 -8
0 -12 -4 -9 -10z"/>
<path d="M1790 1990 c0 -11 33 -30 52 -30 7 0 2 9 -12 20 -28 22 -40 25 -40
10z"/>
<path d="M2300 1970 c0 -5 5 -10 10 -10 6 0 10 5 10 10 0 6 -4 10 -10 10 -5 0
-10 -4 -10 -10z"/>
<path d="M2695 1970 c-3 -5 1 -10 9 -10 8 0 18 5 21 10 3 6 -1 10 -9 10 -8 0
-18 -4 -21 -10z"/>
<path d="M2295 1930 c3 -5 12 -7 20 -3 21 7 19 13 -6 13 -11 0 -18 -4 -14 -10z"/>
<path d="M2701 1931 c-7 -5 -9 -11 -4 -14 6 -4 19 0 29 8 15 11 16 14 4 15 -8
0 -21 -4 -29 -9z"/>
<path d="M2275 1900 c-3 -5 3 -10 14 -10 11 0 23 5 26 10 3 6 -3 10 -14 10
-11 0 -23 -4 -26 -10z"/>
<path d="M2718 1893 c-21 -8 -38 -19 -38 -24 0 -12 4 -12 45 8 19 9 35 20 35
25 0 10 3 10 -42 -9z"/>
<path d="M2257 1859 c8 -8 16 -8 30 0 16 9 14 10 -11 11 -22 0 -27 -3 -19 -11z"/>
<path d="M2210 1830 c0 -5 20 -10 44 -10 25 0 48 5 51 10 4 6 -13 10 -44 10
-28 0 -51 -4 -51 -10z"/>
<path d="M2065 3460 c-10 -11 -13 -20 -8 -20 13 0 38 29 31 35 -3 3 -13 -4
-23 -15z"/>
<path d="M2080 3435 c-7 -9 -11 -18 -8 -20 3 -3 11 1 18 10 7 9 11 18 8 20 -3
3 -11 -1 -18 -10z"/>
<path d="M2090 3395 c-7 -8 -8 -15 -2 -15 5 0 15 7 22 15 7 8 8 15 2 15 -5 0
-15 -7 -22 -15z"/>
<path d="M735 2740 c-4 -6 7 -10 24 -10 17 0 31 5 31 10 0 6 -11 10 -24 10
-14 0 -28 -4 -31 -10z"/>
<path d="M1106 2711 c15 -14 54 -23 54 -13 0 5 -10 12 -22 16 -33 8 -44 8 -32
-3z"/>
<path d="M735 2700 c3 -5 12 -7 20 -3 21 7 19 13 -6 13 -11 0 -18 -4 -14 -10z"/>
<path d="M1085 2691 c-3 -5 4 -13 16 -16 28 -9 36 1 10 14 -12 7 -22 7 -26 2z"/>
<path d="M735 2660 c4 -6 11 -8 16 -5 14 9 11 15 -7 15 -8 0 -12 -5 -9 -10z"/>
<path d="M1065 2650 c3 -5 13 -10 21 -10 8 0 12 5 9 10 -3 6 -13 10 -21 10 -8
0 -12 -4 -9 -10z"/>
<path d="M740 2630 c0 -5 4 -10 9 -10 6 0 13 5 16 10 3 6 -1 10 -9 10 -9 0
-16 -4 -16 -10z"/>
<path d="M1045 2610 c3 -5 11 -10 16 -10 6 0 7 5 4 10 -3 6 -11 10 -16 10 -6
0 -7 -4 -4 -10z"/>
<path d="M356 2536 c-9 -14 -12 -27 -8 -30 5 -3 16 8 26 25 21 35 5 39 -18 5z"/>
<path d="M380 2505 c-8 -9 -8 -15 -2 -15 12 0 26 19 19 26 -2 2 -10 -2 -17
-11z"/>
<path d="M400 2485 c-8 -9 -8 -15 -2 -15 12 0 26 19 19 26 -2 2 -10 -2 -17
-11z"/>
<path d="M842 2450 c-186 -55 -318 -229 -298 -393 8 -65 45 -147 92 -203 18
-23 34 -48 34 -54 0 -7 7 -10 16 -6 10 4 18 0 21 -13 3 -11 11 -17 18 -15 7 3
23 -4 35 -16 11 -11 25 -18 31 -14 6 3 13 -3 15 -13 4 -15 12 -18 35 -15 24 3
28 1 23 -12 -8 -20 9 -21 26 -1 7 8 23 15 37 15 21 0 23 -3 17 -22 l-6 -23 24
23 c28 26 58 32 38 7 -10 -12 -10 -15 3 -15 9 0 21 9 27 20 15 27 33 26 25 -2
-6 -23 -6 -23 9 -3 29 36 58 65 67 65 12 0 11 -17 -1 -25 -12 -8 -13 -35 -1
-35 5 0 11 11 15 24 3 12 24 43 47 67 l41 44 -32 -57 c-17 -32 -28 -58 -23
-58 14 0 79 111 137 236 57 125 64 144 46 144 -5 0 -10 13 -10 30 0 49 -47
152 -94 206 -51 58 -129 101 -219 120 -82 17 -119 16 -195 -6z m286 -45 c39
-20 86 -53 107 -76 47 -53 102 -166 87 -181 -7 -7 -14 3 -22 33 -25 97 -103
179 -221 233 -30 13 -47 25 -38 25 9 1 48 -15 87 -34z m-62 -6 c88 -37 160
-98 194 -165 36 -71 35 -168 -2 -244 -36 -72 -95 -149 -137 -177 -108 -73
-251 -88 -355 -37 -67 32 -133 100 -173 175 -24 47 -28 65 -28 139 0 66 5 95
21 130 28 59 108 141 176 179 48 28 61 31 141 31 76 0 99 -4 163 -31z m264
-278 c0 -6 -4 -13 -10 -16 -5 -3 -10 1 -10 9 0 9 5 16 10 16 6 0 10 -4 10 -9z
m0 -40 c0 -12 -20 -25 -27 -18 -7 7 6 27 18 27 5 0 9 -4 9 -9z m-13 -56 c-4
-8 -11 -15 -17 -15 -14 0 -13 27 3 33 16 6 21 1 14 -18z m-21 -51 c-3 -9 -6
-18 -6 -20 0 -2 -7 -4 -15 -4 -18 0 -19 12 -3 28 17 17 31 15 24 -4z m-26 -54
c-10 -19 -40 -28 -40 -12 0 13 23 32 37 32 11 0 11 -5 3 -20z m-35 -49 c-3 -6
-14 -11 -23 -11 -15 1 -15 2 2 15 21 16 32 13 21 -4z m-48 -48 c-9 -9 -20 -13
-24 -9 -4 4 -1 11 7 16 25 16 35 11 17 -7z m-37 -27 c0 -3 -4 -8 -10 -11 -5
-3 -10 -1 -10 4 0 6 5 11 10 11 6 0 10 -2 10 -4z m-50 -26 c0 -5 -8 -10 -17
-10 -15 0 -16 2 -3 10 19 12 20 12 20 0z m-45 -20 c3 -6 -4 -10 -17 -10 -18 0
-20 2 -8 10 19 12 18 12 25 0z m-55 -14 c0 -2 -7 -7 -16 -10 -8 -3 -12 -2 -9
4 6 10 25 14 25 6z"/>
<path d="M825 2350 c-110 -43 -163 -115 -172 -236 -8 -97 12 -148 77 -207 69
-62 105 -77 187 -76 79 1 115 12 177 56 56 40 94 99 109 169 10 47 8 62 -11
122 -17 52 -32 78 -69 114 -27 26 -65 54 -85 63 -51 21 -151 18 -213 -5z m140
0 c-3 -5 -12 -10 -20 -10 -8 0 -17 5 -20 10 -4 6 5 10 20 10 15 0 24 -4 20
-10z m79 -24 c62 -26 103 -72 127 -143 24 -75 22 -129 -10 -192 -23 -44 -94
-109 -129 -118 -107 -26 -232 90 -240 224 -5 78 1 103 34 143 25 29 144 98
172 100 7 0 27 -6 46 -14z m-134 -6 c-8 -5 -40 -9 -70 -9 -40 0 -49 3 -35 9
29 12 124 12 105 0z m-87 -30 c24 0 28 -3 17 -10 -8 -5 -35 -10 -59 -10 -38 0
-42 2 -31 15 7 9 20 13 27 10 8 -3 29 -5 46 -5z m-23 -49 c0 -8 -91 -23 -99
-16 -1 2 0 8 4 14 7 13 95 15 95 2z m-26 -46 c-4 -10 -20 -15 -50 -15 -59 0
-50 24 11 28 36 2 43 -1 39 -13z m-14 -55 c0 -17 -7 -20 -45 -20 -38 0 -45 3
-45 20 0 17 7 20 45 20 38 0 45 -3 45 -20z m0 -50 c0 -17 -7 -20 -45 -20 -33
0 -45 4 -45 14 0 10 14 16 43 19 23 2 43 4 45 5 1 1 2 -7 2 -18z m14 -45 c4
-11 -2 -15 -24 -15 -17 0 -30 -4 -30 -10 0 -5 15 -10 34 -10 28 0 36 -5 46
-30 15 -36 93 -108 127 -116 43 -11 24 -20 -29 -14 -58 7 -84 18 -140 62 -44
35 -74 74 -83 110 -7 28 -6 28 76 36 9 1 19 -5 23 -13z"/>
<path d="M710 1865 c-20 -24 -6 -28 15 -5 10 11 13 20 8 20 -6 0 -16 -7 -23
-15z"/>
<path d="M736 1844 c-10 -14 -15 -28 -13 -31 3 -2 13 7 23 21 9 15 14 29 12
32 -3 2 -13 -7 -22 -22z"/>
<path d="M770 1825 c-20 -24 -6 -28 15 -5 10 11 13 20 8 20 -6 0 -16 -7 -23
-15z"/>
<path d="M796 1804 c-9 -24 -7 -28 9 -14 17 14 20 30 6 30 -5 0 -12 -7 -15
-16z"/>
<path d="M840 1795 c-7 -9 -11 -18 -8 -20 3 -3 11 1 18 10 7 9 11 18 8 20 -3
3 -11 -1 -18 -10z"/>
<path d="M876 1784 c-10 -25 -1 -27 19 -4 15 17 16 20 3 20 -9 0 -19 -7 -22
-16z"/>
<path d="M916 1774 c-4 -10 -1 -14 6 -12 15 5 23 28 10 28 -5 0 -13 -7 -16
-16z"/>
<path d="M977 1783 c-10 -9 -9 -23 2 -23 5 0 11 7 15 15 5 15 -5 20 -17 8z"/>
<path d="M420 2449 c0 -5 5 -7 10 -4 6 3 10 8 10 11 0 2 -4 4 -10 4 -5 0 -10
-5 -10 -11z"/>
<path d="M491 2235 c-26 -57 -81 -193 -81 -200 0 -3 4 -5 9 -5 4 0 19 28 31
63 12 34 33 84 47 110 13 27 23 56 21 65 -3 11 -13 -2 -27 -33z"/>
<path d="M485 2125 c-48 -107 -54 -122 -48 -129 8 -8 86 161 80 177 -2 6 -17
-15 -32 -48z"/>
<path d="M1650 2094 c0 -27 4 -43 10 -39 6 3 10 24 10 46 0 21 -4 39 -10 39
-5 0 -10 -21 -10 -46z"/>
<path d="M341 2099 c-11 -18 -17 -37 -14 -42 3 -6 15 7 25 27 25 48 16 59 -11
15z"/>
<path d="M270 2101 c-6 -12 -7 -21 -1 -21 10 0 24 30 17 37 -2 3 -9 -5 -16
-16z"/>
<path d="M301 2096 c-8 -14 -12 -29 -8 -32 7 -7 29 34 25 47 -2 6 -10 -1 -17
-15z"/>
<path d="M391 2096 c-6 -16 -10 -34 -8 -40 3 -6 10 2 16 18 6 16 10 34 8 40
-3 6 -10 -2 -16 -18z"/>
<path d="M1620 2086 c0 -14 5 -28 10 -31 6 -4 10 7 10 24 0 17 -4 31 -10 31
-5 0 -10 -11 -10 -24z"/>
<path d="M1590 2070 c0 -16 5 -30 10 -30 6 0 10 14 10 30 0 17 -4 30 -10 30
-5 0 -10 -13 -10 -30z"/>
<path d="M1550 2065 c0 -14 4 -25 9 -25 4 0 6 11 3 25 -2 14 -6 25 -8 25 -2 0
-4 -11 -4 -25z"/>
<path d="M485 2026 c-25 -57 -32 -92 -16 -82 12 8 54 126 47 133 -3 4 -17 -19
-31 -51z"/>
<path d="M1511 2058 c-1 -16 4 -28 9 -28 12 0 12 8 0 35 -8 18 -9 17 -9 -7z"/>
<path d="M501 1956 c-12 -27 -20 -54 -17 -60 5 -15 48 82 43 97 -2 7 -14 -10
-26 -37z"/>
<path d="M1302 1901 c-28 -58 -49 -107 -47 -110 7 -6 6 -7 59 92 26 48 45 96
43 105 -2 10 -25 -26 -55 -87z"/>
<path d="M518 1893 c-19 -22 -33 -63 -21 -63 10 0 46 70 40 76 -2 2 -11 -4
-19 -13z"/>
<path d="M531 1831 c-7 -12 -7 -22 -2 -26 5 -3 13 4 16 16 9 28 -1 36 -14 10z"/>
<path d="M402 1745 c-19 -42 -14 -53 8 -17 22 36 24 42 12 42 -5 0 -14 -11
-20 -25z"/>
<path d="M436 1730 c-18 -44 -21 -70 -8 -54 15 16 42 94 33 94 -5 0 -16 -18
-25 -40z"/>
<path d="M1390 1740 c-7 -13 -7 -20 -1 -20 6 0 15 9 21 20 7 13 7 20 1 20 -6
0 -15 -9 -21 -20z"/>
<path d="M1440 1746 c-6 -9 -10 -21 -8 -28 3 -8 9 -4 17 10 15 28 9 39 -9 18z"/>
<path d="M1470 1731 c-6 -12 -7 -21 -1 -21 10 0 24 30 17 37 -2 3 -9 -5 -16
-16z"/>
<path d="M480 1721 c-6 -12 -7 -21 -1 -21 10 0 24 30 17 37 -2 3 -9 -5 -16
-16z"/>
<path d="M1500 1720 c-6 -11 -9 -26 -7 -33 3 -7 10 1 16 17 14 35 7 47 -9 16z"/>
<path d="M1542 1715 c-14 -30 -16 -54 -4 -39 15 17 32 64 23 64 -4 0 -13 -11
-19 -25z"/>
<path d="M790 1500 c0 -5 7 -10 15 -10 8 0 15 5 15 10 0 6 -7 10 -15 10 -8 0
-15 -4 -15 -10z"/>
<path d="M1115 1489 c-11 -17 1 -21 15 -4 8 9 8 15 2 15 -6 0 -14 -5 -17 -11z"/>
<path d="M770 1460 c0 -5 7 -10 16 -10 8 0 12 5 9 10 -3 6 -10 10 -16 10 -5 0
-9 -4 -9 -10z"/>
<path d="M1142 1462 c-6 -2 -12 -8 -12 -13 0 -4 8 -5 18 -2 15 6 15 5 3 -10
-18 -23 -10 -31 14 -13 17 12 17 15 4 28 -8 8 -20 13 -27 10z"/>
<path d="M755 1431 c-3 -5 2 -11 10 -15 8 -3 17 -1 20 3 3 5 -2 11 -10 15 -8
3 -17 1 -20 -3z"/>
<path d="M1174 1406 c-10 -8 -15 -18 -11 -22 4 -4 17 2 30 14 24 25 12 30 -19
8z"/>
<path d="M740 1390 c0 -5 9 -10 21 -10 11 0 17 5 14 10 -3 6 -13 10 -21 10 -8
0 -14 -4 -14 -10z"/>
<path d="M700 1370 c0 -10 68 -25 77 -16 6 6 -40 26 -63 26 -8 0 -14 -4 -14
-10z"/>
<path d="M1550 2579 c0 -5 5 -7 10 -4 6 3 10 8 10 11 0 2 -4 4 -10 4 -5 0 -10
-5 -10 -11z"/>
<path d="M1580 2575 c-7 -9 -11 -18 -8 -20 3 -3 11 1 18 10 7 9 11 18 8 20 -3
3 -11 -1 -18 -10z"/>
<path d="M1595 2550 c-27 -30 -12 -34 15 -5 13 14 19 25 13 25 -5 0 -18 -9
-28 -20z"/>
<path d="M3060 2395 c-8 -9 -8 -15 -2 -15 12 0 26 19 19 26 -2 2 -10 -2 -17
-11z"/>
<path d="M3085 2380 c-3 -5 -2 -10 4 -10 5 0 13 5 16 10 3 6 2 10 -4 10 -5 0
-13 -4 -16 -10z"/>
<path d="M3116 2373 c-3 -4 -6 -11 -6 -16 0 -6 3 -7 6 -4 4 3 15 2 25 -4 24
-13 24 -8 0 13 -11 9 -22 14 -25 11z"/>
<path d="M3170 2339 c0 -5 5 -7 10 -4 6 3 10 8 10 11 0 2 -4 4 -10 4 -5 0 -10
-5 -10 -11z"/>
<path d="M2473 1893 c-7 -2 -13 -8 -13 -13 0 -10 38 -1 46 11 6 10 -13 11 -33
2z"/>
<path d="M2465 1849 c-11 -17 0 -20 21 -4 17 13 17 14 2 15 -9 0 -20 -5 -23
-11z"/>
<path d="M2455 1810 c-3 -5 1 -10 9 -10 8 0 18 5 21 10 3 6 -1 10 -9 10 -8 0
-18 -4 -21 -10z"/>
<path d="M2458 1768 c9 -9 15 -9 24 0 9 9 7 12 -12 12 -19 0 -21 -3 -12 -12z"/>
<path d="M2016 1678 c-23 -33 -9 -36 22 -5 21 21 23 27 10 27 -9 0 -24 -10
-32 -22z"/>
<path d="M2040 1645 c-20 -24 -6 -28 15 -5 10 11 13 20 8 20 -6 0 -16 -7 -23
-15z"/>
<path d="M2064 1615 c-17 -13 -17 -14 -2 -15 9 0 20 5 23 11 11 17 0 20 -21 4z"/>
<path d="M2522 1605 c-235 -44 -394 -240 -349 -434 35 -150 160 -270 328 -313
209 -54 418 35 519 222 33 61 35 71 35 155 0 76 -5 99 -27 146 -51 111 -128
170 -268 208 -107 28 -155 32 -238 16z m75 -32 c-9 -8 -48 8 -42 18 4 5 14 5
26 -2 12 -6 18 -13 16 -16z m58 17 c3 -5 -1 -10 -9 -10 -8 0 -18 5 -21 10 -3
6 1 10 9 10 8 0 18 -4 21 -10z m-120 -28 c-9 -2 -24 -1 -33 3 -13 5 -14 8 -3
15 9 5 22 3 33 -3 16 -10 16 -12 3 -15z m-71 2 c24 -9 10 -22 -19 -17 -13 3
-22 9 -19 14 6 11 16 11 38 3z m192 -9 c-11 -8 -16 -18 -13 -22 4 -3 17 3 30
15 31 30 57 29 50 0 l-6 -23 25 23 c23 21 28 22 64 9 32 -10 39 -17 36 -37 -2
-22 -1 -22 16 -7 24 21 52 7 33 -17 -8 -10 -9 -16 -3 -16 6 0 14 5 17 10 5 8
11 7 21 -1 11 -9 12 -15 2 -26 -10 -13 -8 -14 12 -11 17 2 25 -2 25 -12 0 -8
8 -18 17 -22 10 -4 15 -14 12 -21 -3 -8 1 -17 9 -20 22 -8 40 -101 35 -177 -8
-111 -81 -214 -200 -284 -63 -37 -167 -58 -229 -46 -95 18 -234 103 -297 182
-41 53 -49 81 -28 113 19 29 11 33 -16 8 -10 -9 -18 -11 -18 -6 0 6 7 16 15
23 8 7 15 17 15 23 0 7 -4 7 -12 -1 -27 -27 -30 -10 -3 18 29 31 30 54 1 25
-15 -15 -16 -15 -16 2 0 11 14 32 30 48 17 16 30 33 30 39 0 5 -13 -3 -30 -19
-16 -16 -30 -23 -30 -16 0 18 212 221 230 221 12 -1 12 -3 -2 -14 -10 -7 -18
-19 -18 -26 0 -7 18 4 40 24 44 40 88 53 55 16 -24 -26 -5 -26 23 0 24 22 58
39 82 39 11 0 10 -3 -4 -14z m-246 -25 c-20 -13 -43 -13 -35 0 3 6 16 10 28
10 18 0 19 -2 7 -10z m-50 -30 c0 -5 -9 -10 -21 -10 -11 0 -17 5 -14 10 3 6
13 10 21 10 8 0 14 -4 14 -10z m15 -40 c-27 -27 -54 -50 -59 -50 -6 0 12 23
39 50 27 28 54 50 59 50 6 0 -12 -22 -39 -50z m-54 -4 c-12 -14 -51 -18 -51
-6 0 13 14 20 38 20 20 0 22 -3 13 -14z m-31 -35 c0 -5 -6 -13 -12 -18 -12 -8
-21 -9 -44 -4 -4 0 -1 8 6 16 13 16 50 21 50 6z m-30 -49 c0 -12 -23 -32 -37
-32 -17 0 -17 27 0 33 19 8 37 8 37 -1z m-30 -67 c0 -8 -9 -15 -20 -15 -20 0
-26 11 -13 23 12 13 33 7 33 -8z m-2 -47 c-7 -19 -38 -22 -38 -4 0 10 9 16 21
16 12 0 19 -5 17 -12z m-16 -59 c-9 -4 -20 -1 -24 5 -4 6 0 14 10 17 9 4 20 1
24 -5 4 -6 0 -14 -10 -17z m21 -40 c4 -15 1 -19 -11 -17 -21 4 -29 38 -9 38 8
0 17 -9 20 -21z m31 -70 c25 -52 121 -141 194 -180 42 -22 49 -28 27 -24 -46
9 -111 43 -164 85 -50 39 -116 134 -106 151 12 19 31 7 49 -32z"/>
<path d="M2780 1535 c-20 -24 -6 -28 15 -5 10 11 13 20 8 20 -6 0 -16 -7 -23
-15z"/>
<path d="M2812 1435 c-7 -14 -12 -29 -12 -33 1 -10 40 38 40 49 0 18 -17 8
-28 -16z"/>
<path d="M2830 1394 c-27 -42 -20 -57 7 -17 31 44 35 53 24 53 -5 0 -19 -16
-31 -36z"/>
<path d="M2855 1354 c-19 -26 -35 -53 -35 -60 0 -21 6 -17 28 19 11 19 27 46
37 60 28 44 9 31 -30 -19z"/>
<path d="M2570 1352 c-49 -27 -94 -101 -85 -141 19 -88 132 -139 214 -96 59
30 80 147 35 196 -45 50 -115 67 -164 41z m80 -12 c20 -7 15 -8 -22 -7 -26 0
-45 4 -42 9 6 10 30 9 64 -2z m-10 -30 c0 -6 -24 -10 -52 -9 -42 1 -48 3 -28
9 36 12 80 12 80 0z m92 -23 c13 -21 9 -102 -8 -125 -20 -29 -30 -28 -65 7
-33 33 -37 67 -13 113 14 27 19 29 47 24 17 -3 35 -12 39 -19z m-118 -20 c-5
-14 -104 -22 -104 -9 0 17 14 22 61 22 35 0 47 -3 43 -13z m-10 -36 c6 -9 -40
-21 -80 -21 -36 0 -29 18 9 23 59 7 66 7 71 -2z m6 -40 c0 -5 -11 -12 -25 -15
-39 -10 -29 -25 10 -16 35 8 51 -4 18 -13 -10 -3 -4 -5 14 -6 47 -2 52 -21 5
-21 -60 0 -140 61 -95 73 32 8 73 7 73 -2z"/>
<path d="M2891 1334 c-20 -25 -27 -44 -17 -44 8 0 48 61 43 66 -2 3 -14 -7
-26 -22z"/>
<path d="M2916 1304 c-4 -10 -1 -14 6 -12 15 5 23 28 10 28 -5 0 -13 -7 -16
-16z"/>
<path d="M2940 1254 c0 -8 5 -12 10 -9 6 3 10 10 10 16 0 5 -4 9 -10 9 -5 0
-10 -7 -10 -16z"/>
<path d="M2966 1221 c-4 -7 -5 -15 -2 -18 9 -9 19 4 14 18 -4 11 -6 11 -12 0z"/>
<path d="M2093 1593 c-7 -3 -13 -12 -13 -21 0 -15 2 -15 17 1 18 18 16 27 -4
20z"/>
<path d="M1902 1258 c-14 -14 -16 -58 -3 -58 7 0 22 60 17 67 -1 2 -8 -3 -14
-9z"/>
<path d="M1927 1233 c-11 -10 -8 -43 3 -43 6 0 10 11 10 25 0 26 -2 29 -13 18z"/>
<path d="M1960 1198 c0 -19 2 -20 10 -8 13 19 13 30 0 30 -5 0 -10 -10 -10
-22z"/>
<path d="M2000 1185 c0 -8 5 -15 10 -15 6 0 10 7 10 15 0 8 -4 15 -10 15 -5 0
-10 -7 -10 -15z"/>
<path d="M3398 1165 c-2 -19 0 -35 4 -35 4 0 8 6 8 13 0 6 3 22 6 35 4 12 2
22 -4 22 -5 0 -12 -16 -14 -35z"/>
<path d="M3367 1160 c-3 -11 -2 -22 3 -25 4 -3 10 4 13 15 3 11 2 22 -3 25 -4
3 -10 -4 -13 -15z"/>
<path d="M3330 1156 c0 -8 5 -18 10 -21 6 -3 10 3 10 14 0 12 -4 21 -10 21 -5
0 -10 -6 -10 -14z"/>
<path d="M3254 1149 c-3 -6 -1 -16 5 -22 8 -8 11 -5 11 11 0 24 -5 28 -16 11z"/>
<path d="M3295 1147 c-4 -10 -5 -21 -1 -24 10 -10 18 4 13 24 -4 17 -4 17 -12
0z"/>
<path d="M2937 923 c-47 -80 -55 -99 -37 -88 16 10 92 145 88 157 -2 6 -25
-25 -51 -69z"/>
<path d="M3008 880 c-30 -54 -32 -60 -20 -60 7 0 62 92 62 104 0 19 -18 0 -42
-44z"/>
<path d="M2861 864 c-24 -41 -28 -69 -5 -39 25 33 45 75 35 75 -5 0 -18 -16
-30 -36z"/>
<path d="M3025 845 c-27 -48 -13 -53 14 -5 12 22 18 40 13 40 -5 0 -17 -16
-27 -35z"/>
<path d="M2781 789 c-23 -39 -40 -73 -37 -77 7 -7 5 -10 51 68 50 84 48 80 37
80 -5 0 -28 -32 -51 -71z"/>
<path d="M2120 841 c0 -5 5 -13 10 -16 6 -3 10 -2 10 4 0 5 -4 13 -10 16 -5 3
-10 2 -10 -4z"/>
<path d="M3056 825 c-18 -27 -20 -35 -8 -35 4 0 16 14 25 30 22 36 6 41 -17 5z"/>
<path d="M2100 820 c0 -5 5 -10 11 -10 5 0 7 5 4 10 -3 6 -8 10 -11 10 -2 0
-4 -4 -4 -10z"/>
<path d="M2731 789 c-13 -17 -20 -33 -17 -37 6 -6 27 17 47 51 17 29 -6 19
-30 -14z"/>
<path d="M2040 799 c0 -16 27 -46 35 -38 2 2 -5 15 -15 29 -15 19 -20 21 -20
9z"/>
<path d="M2072 799 c2 -7 10 -15 17 -17 8 -3 12 1 9 9 -2 7 -10 15 -17 17 -8
3 -12 -1 -9 -9z"/>
<path d="M3085 790 c-10 -11 -15 -23 -12 -27 7 -6 36 25 37 40 0 11 -6 8 -25
-13z"/>
<path d="M2000 793 c0 -12 38 -48 45 -41 3 2 -6 15 -20 28 -14 13 -25 19 -25
13z"/>
<path d="M3112 768 c-14 -14 -16 -28 -3 -28 9 0 24 30 18 36 -2 2 -9 -2 -15
-8z"/>
<path d="M2770 650 c0 -5 4 -10 9 -10 6 0 13 5 16 10 3 6 -1 10 -9 10 -9 0
-16 -4 -16 -10z"/>
<path d="M2775 620 c-3 -5 1 -10 9 -10 9 0 16 5 16 10 0 6 -4 10 -9 10 -6 0
-13 -4 -16 -10z"/>
<path d="M2775 590 c-3 -5 1 -10 9 -10 9 0 16 5 16 10 0 6 -4 10 -9 10 -6 0
-13 -4 -16 -10z"/>
<path d="M2745 560 c-4 -6 5 -10 24 -8 17 1 31 6 31 10 0 12 -48 10 -55 -2z"/>
<path d="M2275 1650 c-3 -5 1 -10 9 -10 8 0 18 5 21 10 3 6 -1 10 -9 10 -8 0
-18 -4 -21 -10z"/>
<path d="M1330 1505 c-13 -14 -19 -25 -13 -25 5 0 20 11 33 25 13 14 19 25 13
25 -5 0 -20 -11 -33 -25z"/>
<path d="M1355 1470 c-10 -11 -13 -20 -8 -20 13 0 38 29 31 35 -3 3 -13 -4
-23 -15z"/>
<path d="M3225 879 c-11 -17 1 -21 15 -4 8 9 8 15 2 15 -6 0 -14 -5 -17 -11z"/>
<path d="M2645 420 c-146 -85 -188 -113 -193 -130 -4 -12 -2 -12 14 2 10 9 73
46 139 83 66 37 126 73 134 81 33 31 0 19 -94 -36z"/>
<path d="M2870 404 c-145 -73 -211 -116 -198 -129 4 -4 17 3 30 15 13 12 89
54 170 93 81 40 150 77 153 84 7 19 4 18 -155 -63z"/>
<path d="M2995 410 c-77 -38 -151 -78 -165 -89 -42 -33 -15 -34 34 -1 25 17
98 56 161 86 63 29 115 58 115 64 0 13 14 19 -145 -60z"/>
<path d="M3230 399 c-88 -44 -160 -85 -160 -91 0 -5 3 -8 8 -6 96 44 331 165
331 171 2 15 -23 5 -179 -74z"/>
<path d="M1575 413 c-117 -59 -165 -89 -165 -103 0 -5 25 7 56 25 31 19 94 53
140 75 46 23 84 46 84 51 0 12 10 16 -115 -48z"/>
<path d="M1705 421 c-44 -26 -102 -61 -130 -76 -27 -16 -44 -30 -38 -32 10 -4
152 73 245 131 18 11 24 26 11 26 -5 0 -44 -22 -88 -49z"/>
<path d="M1829 431 c-100 -58 -195 -124 -183 -128 6 -2 42 17 79 43 38 25 90
56 115 69 44 22 83 56 64 54 -5 0 -39 -17 -75 -38z"/>
<path d="M1910 404 c-117 -66 -149 -89 -138 -99 3 -4 28 9 55 28 26 19 80 51
118 72 74 39 92 52 84 59 -3 3 -56 -24 -119 -60z"/>
<path d="M2075 432 c-126 -67 -215 -123 -215 -133 0 -13 -3 -15 110 53 52 31
116 66 143 79 26 13 47 27 47 31 0 13 -12 9 -85 -30z"/>
<path d="M2160 409 c-115 -61 -150 -84 -150 -101 0 -5 19 4 43 20 23 16 88 53
145 81 56 28 102 53 102 56 0 13 -35 -1 -140 -56z"/>
<path d="M2724 397 c-165 -91 -170 -94 -162 -102 3 -4 23 4 45 18 21 13 83 47
138 76 101 53 122 67 114 75 -2 3 -63 -28 -135 -67z"/>
<path d="M3466 394 c-76 -40 -141 -76 -144 -79 -11 -10 8 -18 20 -8 7 6 67 38
133 73 121 62 142 76 134 84 -2 2 -67 -29 -143 -70z"/>
<path d="M2305 417 c-106 -57 -195 -115 -195 -126 0 -5 37 13 83 41 45 27 112
65 150 84 37 19 67 36 67 39 0 13 -32 1 -105 -38z"/>
<path d="M3220 445 c-14 -8 -82 -41 -151 -73 -70 -33 -129 -65 -133 -71 -4 -6
-5 -11 -3 -11 15 0 317 152 317 160 0 6 -1 10 -2 9 -2 0 -14 -7 -28 -14z"/>
<path d="M3440 446 c-8 -8 -44 -29 -80 -49 -84 -45 -164 -89 -169 -93 -2 -2
-2 -7 1 -10 4 -3 48 18 100 48 51 29 114 65 141 78 46 25 60 40 34 40 -7 0
-19 -6 -27 -14z"/>
<path d="M3589 400 c-110 -57 -139 -76 -139 -92 0 -5 19 4 43 20 23 16 75 44
115 62 64 29 102 56 91 63 -2 1 -52 -22 -110 -53z"/>
<path d="M1028 380 c-135 -71 -158 -86 -158 -103 0 -5 8 -3 18 5 9 9 71 43
137 77 109 56 165 93 140 90 -6 -1 -67 -31 -137 -69z"/>
<path d="M1175 397 c-114 -60 -177 -101 -169 -110 3 -3 21 5 40 18 19 13 79
46 134 74 89 46 126 71 103 71 -4 0 -53 -24 -108 -53z"/>
<path d="M1265 379 c-143 -79 -140 -77 -133 -84 2 -3 56 23 119 57 147 79 177
98 159 98 -8 0 -73 -32 -145 -71z"/>
<path d="M1445 412 c-60 -32 -151 -87 -164 -98 -2 -2 -2 -7 1 -10 3 -3 30 10
59 29 30 19 82 48 117 66 34 17 62 36 62 41 0 13 5 15 -75 -28z"/>
<path d="M2379 392 c-119 -64 -156 -87 -149 -95 5 -5 245 124 263 142 23 23
-12 9 -114 -47z"/>
<path d="M2495 392 c-134 -70 -155 -83 -155 -99 0 -7 15 -2 38 13 20 14 81 48
135 75 53 27 97 54 97 59 0 13 10 17 -115 -48z"/>
<path d="M3743 425 c-12 -8 -45 -27 -73 -43 -95 -50 -100 -53 -100 -62 0 -6
24 4 53 20 28 16 75 41 102 55 28 15 54 31 60 36 15 15 -18 10 -42 -6z"/>
<path d="M750 368 c-140 -68 -136 -66 -127 -74 6 -6 242 109 262 127 22 21
-17 6 -135 -53z"/>
<path d="M876 366 c-66 -33 -121 -66 -123 -73 -4 -10 240 109 262 128 24 23
-31 1 -139 -55z"/>
<path d="M3791 395 c-29 -19 -56 -35 -61 -35 -10 0 -34 -29 -28 -35 2 -3 36
16 74 41 81 54 79 53 73 59 -3 2 -29 -11 -58 -30z"/>
<path d="M625 367 c-54 -29 -101 -58 -103 -65 -3 -8 13 -3 38 13 23 14 75 41
116 60 41 19 74 36 74 39 0 14 -31 2 -125 -47z"/>
<path d="M580 398 c-54 -24 -151 -80 -147 -85 7 -7 177 78 177 89 0 9 2 10
-30 -4z"/>
<path d="M3848 372 c-16 -9 -28 -20 -28 -24 0 -11 64 18 68 31 5 15 -8 13 -40
-7z"/>
</g>
</svg>
